<?xml version="1.0" encoding="utf-8"?>
<!-- Generator: Adobe Illustrator 13.0.0, SVG Export Plug-In . SVG Version: 6.00 Build 14948)  -->
<!DOCTYPE svg PUBLIC "-//W3C//DTD SVG 1.1//EN" "http://www.w3.org/Graphics/SVG/1.1/DTD/svg11.dtd">
<svg version="1.1" id="Layer_1" xmlns="http://www.w3.org/2000/svg" xmlns:xlink="http://www.w3.org/1999/xlink" x="0px" y="0px"
	 width="512px" height="512px" viewBox="0 0 512 512" enable-background="new 0 0 512 512" xml:space="preserve">
<g>
	<path fill="none" d="M381.35,91.502H130.648c-10.808,0.002-20.549,4.375-27.668,11.48c-7.106,7.119-11.479,16.859-11.483,27.666
		l0.002,250.701c0.002,10.809,4.375,20.55,11.481,27.668c7.119,7.106,16.859,11.479,27.667,11.483l250.704-0.002
		c10.807-0.003,20.549-4.375,27.669-11.481c6.984-6.996,11.326-16.525,11.478-27.109V130.648
		c-0.003-10.807-4.375-20.549-11.479-27.666C401.9,95.877,392.16,91.503,381.35,91.502z M256.001,381.592
		c-13.277-0.017-24.021-10.762-24.036-24.035c0.017-13.271,10.76-24.019,24.036-24.036c13.273,0.02,24.02,10.761,24.033,24.036
		C280.019,370.832,269.274,381.577,256.001,381.592z M313.281,234.125c-6.804,8.979-15.117,15.742-22.044,21.472
		c-3.548,2.923-6.8,5.614-9.317,8.015c-2.525,2.384-4.26,4.521-4.934,5.832c-0.469,0.891-0.483,1.274-0.483,1.361v24.104
		c-0.008,11.321-9.174,20.491-20.5,20.501c-11.328-0.009-20.496-9.177-20.504-20.502v-24.104
		c-0.033-11.412,4.511-20.945,10.368-28.371c5.872-7.479,13.022-13.289,19.287-18.472c6.783-5.57,11.934-10.111,14.967-13.963
		c3.043-3.939,4.069-6.595,4.132-10.337c-0.005-7.805-3.151-14.823-8.287-19.971c-5.146-5.133-12.161-8.285-19.964-8.289
		c-7.803,0.004-14.819,3.155-19.967,8.289c-5.133,5.146-8.284,12.166-8.287,19.971c-0.006,11.32-9.174,20.492-20.5,20.5
		c-11.328-0.008-20.496-9.18-20.501-20.5c0.019-38.21,31.046-69.242,69.254-69.259v8v0.003c0.001,0,0.002,0,0.003,0v-0.002v-8
		c38.205,0.017,69.236,31.045,69.252,69.255c0,0,0,0.004,0.002,0.004C325.295,213.675,320.088,225.19,313.281,234.125z"/>
	<path d="M461.497,130.641c-0.012-44.217-35.933-80.126-80.145-80.141H130.648c-44.215,0.016-80.133,35.929-80.149,80.147v250.701
		c0.015,44.215,35.936,80.131,80.149,80.146v-0.001h250.703c44.215-0.013,80.134-35.929,80.148-80.146V130.647L461.497,130.641z
		 M420.498,381.908c-0.151,10.584-4.493,20.113-11.478,27.109c-7.12,7.106-16.862,11.479-27.669,11.481l-250.704,0.002
		c-10.808-0.004-20.548-4.377-27.667-11.483c-7.106-7.118-11.479-16.859-11.481-27.668l-0.002-250.701
		c0.004-10.807,4.377-20.547,11.483-27.666c7.119-7.105,16.86-11.479,27.668-11.48H381.35c10.81,0.001,20.55,4.375,27.668,11.479
		c7.104,7.117,11.477,16.859,11.479,27.666V381.908z"/>
	<path d="M256.004,130.404v8v0.002c-0.001,0-0.002,0-0.003,0v-0.003v-8c-38.208,0.017-69.235,31.049-69.254,69.259
		c0.005,11.32,9.173,20.492,20.501,20.5c11.326-0.008,20.494-9.18,20.5-20.5c0.003-7.805,3.154-14.824,8.287-19.971
		c5.147-5.134,12.164-8.285,19.967-8.289c7.803,0.004,14.818,3.156,19.964,8.289c5.136,5.147,8.282,12.166,8.287,19.971
		c-0.063,3.742-1.089,6.397-4.132,10.337c-3.033,3.852-8.184,8.393-14.967,13.963c-6.265,5.183-13.415,10.993-19.287,18.472
		c-5.857,7.426-10.401,16.959-10.368,28.371v24.104c0.008,11.325,9.176,20.493,20.504,20.502c11.326-0.01,20.492-9.18,20.5-20.501
		v-24.104c0-0.087,0.015-0.471,0.483-1.361c0.674-1.311,2.408-3.448,4.934-5.832c2.518-2.4,5.77-5.092,9.317-8.015
		c6.927-5.729,15.24-12.493,22.044-21.472c6.807-8.936,12.014-20.45,11.977-34.463c-0.002,0-0.002-0.004-0.002-0.004
		C325.24,161.448,294.209,130.42,256.004,130.404z"/>
	<path d="M256.001,333.521c-13.276,0.018-24.02,10.765-24.036,24.036c0.015,13.273,10.759,24.019,24.036,24.035
		c13.273-0.015,24.019-10.76,24.033-24.035C280.02,344.281,269.274,333.54,256.001,333.521z"/>
</g>
</svg>
