<?xml version="1.0" encoding="utf-8"?>
<!-- Generator: Adobe Illustrator 13.0.0, SVG Export Plug-In . SVG Version: 6.00 Build 14948)  -->
<!DOCTYPE svg PUBLIC "-//W3C//DTD SVG 1.1//EN" "http://www.w3.org/Graphics/SVG/1.1/DTD/svg11.dtd">
<svg version="1.1" id="Capa_1" xmlns="http://www.w3.org/2000/svg" xmlns:xlink="http://www.w3.org/1999/xlink" x="0px" y="0px"
	 width="500px" height="500px" viewBox="0 0 500 500" enable-background="new 0 0 500 500" xml:space="preserve">
<g>
	<g>
		<path fill="#030104" d="M250,0C111.928,0,0,111.929,0,250s111.929,250,250,250c138.072,0,250-111.929,250-250S388.072,0,250,0z
			 M250,452.999c-112.106,0-202.999-90.893-202.999-202.999c0-112.107,90.893-203,202.999-203c112.107,0,203,90.893,203,203
			C453,362.107,362.107,452.999,250,452.999z"/>
		<path fill="#030104" d="M133.491,366.49c0,0,132.385-47.679,158.868-74.131c26.483-26.483,74.132-158.869,74.132-158.869
			s-132.385,47.679-158.854,74.147S133.491,366.49,133.491,366.49z M227.903,237.605l34.489,34.489
			c8.622,8.623-77.601,43.111-77.601,43.111S219.281,228.982,227.903,237.605z"/>
	</g>
</g>
</svg>
