<?xml version="1.0" encoding="UTF-8" standalone="no"?>
<!-- Generator: Adobe Illustrator 13.0.0, SVG Export Plug-In . SVG Version: 6.00 Build 14948)  -->

<svg
   xmlns:dc="http://purl.org/dc/elements/1.1/"
   xmlns:cc="http://creativecommons.org/ns#"
   xmlns:rdf="http://www.w3.org/1999/02/22-rdf-syntax-ns#"
   xmlns:svg="http://www.w3.org/2000/svg"
   xmlns="http://www.w3.org/2000/svg"
   xmlns:sodipodi="http://sodipodi.sourceforge.net/DTD/sodipodi-0.dtd"
   xmlns:inkscape="http://www.inkscape.org/namespaces/inkscape"
   version="1.1"
   id="Capa_1"
   x="0px"
   y="0px"
   width="500px"
   height="500px"
   viewBox="0 0 500 500"
   enable-background="new 0 0 500 500"
   xml:space="preserve"
   sodipodi:docname="brujula-norte.svg"
   inkscape:version="0.92.3 (2405546, 2018-03-11)"><metadata
   id="metadata15"><rdf:RDF><cc:Work
       rdf:about=""><dc:format>image/svg+xml</dc:format><dc:type
         rdf:resource="http://purl.org/dc/dcmitype/StillImage" /><dc:title></dc:title></cc:Work></rdf:RDF></metadata><defs
   id="defs13" /><sodipodi:namedview
   pagecolor="#ffffff"
   bordercolor="#666666"
   borderopacity="1"
   objecttolerance="10"
   gridtolerance="10"
   guidetolerance="10"
   inkscape:pageopacity="0"
   inkscape:pageshadow="2"
   inkscape:window-width="1280"
   inkscape:window-height="996"
   id="namedview11"
   showgrid="false"
   inkscape:zoom="0.472"
   inkscape:cx="-133.47458"
   inkscape:cy="250"
   inkscape:window-x="0"
   inkscape:window-y="0"
   inkscape:window-maximized="1"
   inkscape:current-layer="Capa_1" />
<g
   id="g8"
   transform="rotate(-44,250,250)">
	<g
   id="g6">
		<path
   d="M 250,0 C 111.928,0 0,111.929 0,250 0,388.071 111.929,500 250,500 388.072,500 500,388.071 500,250 500,111.929 388.072,0 250,0 Z m 0,452.999 C 137.894,452.999 47.001,362.106 47.001,250 47.001,137.893 137.894,47 250,47 c 112.107,0 203,90.893 203,203 0,112.107 -90.893,202.999 -203,202.999 z"
   id="path2"
   inkscape:connector-curvature="0"
   style="fill:#030104" />
		<path
   d="m 133.491,366.49 c 0,0 132.385,-47.679 158.868,-74.131 26.483,-26.483 74.132,-158.869 74.132,-158.869 0,0 -132.385,47.679 -158.854,74.147 -26.469,26.468 -74.146,158.853 -74.146,158.853 z m 94.412,-128.885 34.489,34.489 c 8.622,8.623 -77.601,43.111 -77.601,43.111 0,0 34.49,-86.223 43.112,-77.6 z"
   id="path4"
   inkscape:connector-curvature="0"
   style="fill:#030104" />
	</g>
</g>
</svg>