<?xml version="1.0" encoding="utf-8"?>
<!-- Generator: Adobe Illustrator 13.0.0, SVG Export Plug-In . SVG Version: 6.00 Build 14948)  -->
<!DOCTYPE svg PUBLIC "-//W3C//DTD SVG 1.1//EN" "http://www.w3.org/Graphics/SVG/1.1/DTD/svg11.dtd">
<svg version="1.1" id="Layer_1" xmlns="http://www.w3.org/2000/svg" xmlns:xlink="http://www.w3.org/1999/xlink" x="0px" y="0px"
	 width="512px" height="512px" viewBox="0 0 512 512" enable-background="new 0 0 512 512" xml:space="preserve">
<path d="M307.768,255.255L438.54,386.028c14.913,14.912,14.913,37.854,0,52.767c-6.883,6.883-17.206,11.472-26.384,11.472
	c-9.177,0-19.501-4.589-26.384-11.472L255,308.022L124.227,438.794c-6.883,6.883-17.207,11.472-26.384,11.472
	c-9.177,0-19.501-4.589-26.384-11.472c-14.913-14.912-14.913-37.854,0-52.767l130.773-130.773L71.459,124.482
	c-14.913-14.913-14.913-37.855,0-52.768c14.913-14.913,37.855-14.913,52.768,0L255,202.486L385.772,71.714
	c14.913-14.913,37.855-14.913,52.768,0c14.913,14.913,14.913,37.855,0,52.768L307.768,255.255z"/>
</svg>
