<?xml version="1.0" encoding="utf-8"?>
<!-- Generator: Adobe Illustrator 13.0.0, SVG Export Plug-In . SVG Version: 6.00 Build 14948)  -->
<!DOCTYPE svg PUBLIC "-//W3C//DTD SVG 1.1//EN" "http://www.w3.org/Graphics/SVG/1.1/DTD/svg11.dtd">
<svg version="1.1" id="Capa_1" xmlns="http://www.w3.org/2000/svg" xmlns:xlink="http://www.w3.org/1999/xlink" x="0px" y="0px"
	 width="512px" height="512px" viewBox="0 0 512 512" enable-background="new 0 0 512 512" xml:space="preserve">
<g>
	<path d="M39.123,155.981l210.231,112.414c2.075,1.11,4.36,1.664,6.645,1.664s4.57-0.554,6.646-1.664l210.231-112.414
		c4.585-2.452,7.449-7.229,7.449-12.429c0-5.201-2.862-9.977-7.449-12.43L262.644,18.708c-4.151-2.222-9.14-2.222-13.291,0
		L39.123,131.122c-4.585,2.453-7.449,7.229-7.449,12.43C31.674,148.751,34.538,153.529,39.123,155.981z M255.999,55.12
		l170.343,88.432l-170.343,85.431L85.656,143.552L255.999,55.12z"/>
	<path d="M472.876,243.606l-61.286-32.77c-6.864-3.672-20.752-1.532-24.423,5.331c-3.67,6.865-2.731,18.855,4.134,22.525
		l31.041,17.342l-166.343,82.431L89.656,256.035l31.483-17.578c6.865-3.671,6.697-15.094,3.027-21.958
		c-3.67-6.862-16.454-9.569-23.317-5.899l-61.727,33.005c-4.585,2.452-7.449,7.229-7.449,12.429c0,5.2,2.861,9.977,7.449,12.429
		l210.231,112.413c2.075,1.111,4.36,1.666,6.645,1.666s4.57-0.555,6.646-1.666l210.231-112.413
		c4.585-2.452,7.449-7.229,7.449-12.429C480.325,250.835,477.463,246.058,472.876,243.606z"/>
	<path d="M472.876,356.02l-59.343-31.731c-6.866-3.67-20.696-0.651-24.366,6.212c-3.67,6.865-2.788,17.975,4.077,21.645
		l29.098,16.302l-166.343,82.431L89.656,368.448l28.707-16.093c6.865-3.67,7.806-14.992,4.136-21.855s-17.563-9.674-24.425-6.001
		l-58.952,31.522c-4.585,2.452-7.449,7.229-7.449,12.429s2.861,9.977,7.449,12.429l210.231,112.414
		c2.075,1.11,4.36,1.665,6.645,1.665s4.57-0.555,6.646-1.665l210.231-112.414c4.585-2.452,7.449-7.229,7.449-12.429
		S477.463,358.472,472.876,356.02z"/>
</g>
</svg>
