<?xml version="1.0" encoding="utf-8"?>
<!-- Generator: Adobe Illustrator 13.0.0, SVG Export Plug-In . SVG Version: 6.00 Build 14948)  -->
<!DOCTYPE svg PUBLIC "-//W3C//DTD SVG 1.1//EN" "http://www.w3.org/Graphics/SVG/1.1/DTD/svg11.dtd">
<svg version="1.1" id="Capa_1" xmlns="http://www.w3.org/2000/svg" xmlns:xlink="http://www.w3.org/1999/xlink" x="0px" y="0px"
	 width="1792px" height="1792px" viewBox="0 0 1792 1792" enable-background="new 0 0 1792 1792" xml:space="preserve">
<path d="M1312,256H480c-44,0-81.666,15.666-113,47c-31.333,31.333-47,69-47,113v832c0,44,15.667,81.666,47,113
	c31.334,31.333,69,47,113,47h832c44,0,81.667-15.667,113-47c31.334-31.334,47-69,47-113V416c0-44-15.666-81.667-47-113
	C1393.667,271.666,1356,256,1312,256z M1600,416v832c0,79.333-28.166,147.166-84.5,203.5c-56.333,56.333-124.166,84.5-203.5,84.5
	H480c-79.333,0-147.166-28.167-203.5-84.5c-56.333-56.334-84.5-124.167-84.5-203.5V416c0-79.334,28.167-147.167,84.5-203.5
	C332.834,156.166,400.667,128,480,128h832c79.334,0,147.167,28.166,203.5,84.5C1571.834,268.833,1600,336.666,1600,416z"/>
<path d="M1269.045,535.375c-22.487-0.948-45.309,6.64-62.495,23.882L819.304,946.447L599.456,726.654
	c-17.187-17.242-40.008-24.775-62.495-23.882c-20.255,0.837-40.398,8.37-55.855,23.882c-15.457,15.457-23.045,35.6-23.882,55.855
	c-0.949,22.487,6.64,45.309,23.882,62.495l278.996,278.995c16.349,16.35,37.776,24.496,59.203,24.496s42.854-8.146,59.203-24.496
	l446.393-446.393c17.242-17.242,24.778-40.008,23.882-62.495c-0.837-20.255-8.369-40.398-23.882-55.854
	C1309.387,543.745,1289.3,536.156,1269.045,535.375z"/>
</svg>
