<?xml version="1.0" encoding="utf-8"?>
<!-- Generator: Adobe Illustrator 13.0.0, SVG Export Plug-In . SVG Version: 6.00 Build 14948)  -->
<!DOCTYPE svg PUBLIC "-//W3C//DTD SVG 1.1//EN" "http://www.w3.org/Graphics/SVG/1.1/DTD/svg11.dtd">
<svg version="1.1" id="Capa_1" xmlns="http://www.w3.org/2000/svg" xmlns:xlink="http://www.w3.org/1999/xlink" x="0px" y="0px"
	 width="500px" height="500px" viewBox="0 0 500 500" enable-background="new 0 0 500 500" xml:space="preserve">
<g id="Check">
	<g>
		<path d="M250,0C111.937,0,0,111.938,0,250s111.938,250,250,250s250-111.938,250-250S388.062,0,250,0z M250,453.125
			C138,453.125,46.875,362,46.875,250S138,46.875,250,46.875S453.125,138,453.125,250S362,453.125,250,453.125z M352.5,172.063
			c-6.297-0.266-12.688,1.859-17.5,6.688L226.562,287.172L165,225.625c-4.813-4.828-11.203-6.938-17.5-6.688
			c-5.672,0.234-11.313,2.344-15.641,6.688c-4.328,4.328-6.453,9.969-6.688,15.641c-0.266,6.297,1.859,12.688,6.688,17.5
			l78.125,78.125c4.578,4.578,10.578,6.859,16.578,6.859s12-2.281,16.578-6.859l125-125c4.828-4.828,6.938-11.203,6.688-17.5
			c-0.234-5.672-2.344-11.313-6.688-15.641C363.797,174.406,358.172,172.281,352.5,172.063z"/>
	</g>
</g>
</svg>
