<?xml version="1.0" encoding="utf-8"?>
<!-- Generator: Adobe Illustrator 13.0.0, SVG Export Plug-In . SVG Version: 6.00 Build 14948)  -->
<!DOCTYPE svg PUBLIC "-//W3C//DTD SVG 1.1//EN" "http://www.w3.org/Graphics/SVG/1.1/DTD/svg11.dtd">
<svg version="1.1" id="Capa_1" xmlns="http://www.w3.org/2000/svg" xmlns:xlink="http://www.w3.org/1999/xlink" x="0px" y="0px"
	 width="500px" height="500px" viewBox="0 0 500 500" enable-background="new 0 0 500 500" xml:space="preserve">
<g id="Check">
	<g>
		<path d="M250,0C111.937,0,0,111.938,0,250c0,138.062,111.938,250,250,250c138.063,0,250-111.938,250-250
			C500,111.938,388.062,0,250,0z M250,453.125C138,453.125,46.875,362,46.875,250S138,46.875,250,46.875S453.125,138,453.125,250
			S362,453.125,250,453.125z"/>
	</g>
</g>
<path d="M373.492,250.001c0,68.2-55.294,123.507-123.493,123.507c-68.183,0-123.493-55.278-123.493-123.507
	c0-68.199,55.31-123.508,123.493-123.508C318.198,126.492,373.492,181.802,373.492,250.001z"/>
</svg>
