<?xml version="1.0" encoding="utf-8"?>
<!-- Generator: Adobe Illustrator 13.0.0, SVG Export Plug-In . SVG Version: 6.00 Build 14948)  -->
<!DOCTYPE svg PUBLIC "-//W3C//DTD SVG 1.1//EN" "http://www.w3.org/Graphics/SVG/1.1/DTD/svg11.dtd">
<svg version="1.1" id="Layer_1" xmlns="http://www.w3.org/2000/svg" xmlns:xlink="http://www.w3.org/1999/xlink" x="0px" y="0px"
	 width="512px" height="512px" viewBox="0 0 512 512" enable-background="new 0 0 512 512" xml:space="preserve">
<g>
	<g>
		<path d="M412.918,24.15H99.082c-46.723,0-84.734,38.013-84.734,84.735v193.574c0,46.724,38.011,84.735,84.734,84.735
			l199.896,0.001l95.688,95.69c3.244,3.241,7.576,4.964,11.988,4.964c2.184,0,4.386-0.424,6.479-1.293
			c6.335-2.625,10.463-8.8,10.463-15.654v-84.38c41.705-5.267,74.053-40.956,74.053-84.064V108.884
			C497.652,62.162,459.641,24.15,412.918,24.15z M458.818,301.071c0,27.367-22.264,49.631-49.632,49.631h-4.084
			c-9.134,0-16.543,7.409-16.543,16.545v58.32l-70.017-70.019c-3.099-3.104-7.309-4.847-11.697-4.847H102.813
			c-27.368,0-49.632-22.264-49.632-49.631V112.099c0-27.366,22.264-49.632,49.632-49.632h306.373
			c27.368,0,49.632,22.266,49.632,49.632V301.071z"/>
	</g>
	<g>
		<path d="M380.728,139.066c12.169,0.004,22.028,9.862,22.032,22.032l0,0c-0.004,12.169-9.863,22.028-22.032,22.032l0,0h-249.46l0,0
			c-12.167-0.004-22.028-9.863-22.032-22.032l0,0c0.004-12.173,9.864-22.028,22.032-22.032l0,0H380.728"/>
	</g>
	<g>
		<path d="M380.73,233.969c12.166,0.004,22.025,9.858,22.029,22.032l0,0c-0.004,12.167-9.861,22.025-22.029,22.029l0,0H131.27l0,0
			c-12.167-0.004-22.028-9.861-22.032-22.029l0,0c0.002-12.173,9.864-22.028,22.032-22.032l0,0H380.73"/>
	</g>
</g>
</svg>
