<?xml version="1.0" encoding="utf-8"?>
<!-- Generator: Adobe Illustrator 13.0.0, SVG Export Plug-In . SVG Version: 6.00 Build 14948)  -->
<!DOCTYPE svg PUBLIC "-//W3C//DTD SVG 1.1//EN" "http://www.w3.org/Graphics/SVG/1.1/DTD/svg11.dtd">
<svg version="1.1" id="Capa_1" xmlns="http://www.w3.org/2000/svg" xmlns:xlink="http://www.w3.org/1999/xlink" x="0px" y="0px"
	 width="95px" height="95px" viewBox="0 0 95 95" enable-background="new 0 0 95 95" xml:space="preserve">
<path d="M89.202,28.112H6.353c-2.123,0-3.843,1.721-3.843,3.842v30.733c0,2.123,1.72,3.842,3.843,3.842h82.848
	c2.121,0,3.843-1.719,3.843-3.842h0.001V31.954C93.045,29.833,91.324,28.112,89.202,28.112z M86.341,57.505
	c0,1.401-1.137,2.538-2.538,2.538H11.347c-1.401,0-2.538-1.137-2.538-2.538V37.2c0-1.401,1.137-2.538,2.538-2.538h72.456
	c1.401,0,2.538,1.137,2.538,2.538V57.505z"/>
<path d="M30.336,40.273H18.195c-0.639,0-1.156,0.518-1.156,1.156v12.14c0,0.639,0.518,1.157,1.156,1.157h12.141
	c0.638,0,1.157-0.519,1.157-1.157v-12.14C31.492,40.792,30.974,40.273,30.336,40.273z"/>
<path d="M53.57,40.273H41.43c-0.638,0-1.156,0.518-1.156,1.156v12.14c0,0.639,0.518,1.157,1.156,1.157h12.14
	c0.638,0,1.156-0.519,1.156-1.157v-12.14C54.727,40.792,54.21,40.273,53.57,40.273z"/>
<path d="M76.806,40.273H64.664c-0.638,0-1.156,0.518-1.156,1.156v12.14c0,0.639,0.519,1.157,1.156,1.157h12.142
	c0.637,0,1.157-0.519,1.157-1.157v-12.14C77.963,40.792,77.444,40.273,76.806,40.273z"/>
</svg>
