<?xml version="1.0" encoding="utf-8"?>
<!-- Generator: Adobe Illustrator 13.0.0, SVG Export Plug-In . SVG Version: 6.00 Build 14948)  -->
<!DOCTYPE svg PUBLIC "-//W3C//DTD SVG 1.1//EN" "http://www.w3.org/Graphics/SVG/1.1/DTD/svg11.dtd">
<svg version="1.1" id="Capa_1" xmlns="http://www.w3.org/2000/svg" xmlns:xlink="http://www.w3.org/1999/xlink" x="0px" y="0px"
	 width="77.084px" height="77.084px" viewBox="0 0 77.084 77.084" enable-background="new 0 0 77.084 77.084" xml:space="preserve">
<path d="M48.606,13.657c0-4.277-3.476-7.754-7.754-7.754c-4.27,0-7.751,3.473-7.751,7.754c0,3.402,2.218,6.263,5.27,7.311h-4.714
	v6.644h4.703v2.966h-4.703v3.321h4.703v2.889h-4.703v3.327h4.703v2.884h-4.703v3.323h4.703v2.89h-4.703v3.321h4.703v2.894h-4.703
	v3.321h4.703v1.099c-2.035,0.94-3.462,2.999-3.462,5.385c0,3.287,2.672,5.956,5.951,5.956c3.279,0,5.956-2.665,5.956-5.956
	c0-2.384-1.425-4.444-3.463-5.385v-1.099h5.324v-3.328H43.34v-2.891h5.324v-3.322H43.34v-2.892h5.324v-3.322H43.34v-2.887h5.324
	v-3.324H43.34v-2.889h5.324v-3.321H43.34v-2.966h5.324V20.96h-5.337C46.388,19.919,48.606,17.059,48.606,13.657z M36.424,13.657
	c0-2.447,1.99-4.433,4.433-4.433c2.444,0,4.43,1.986,4.43,4.433c0,2.44-1.985,4.429-4.43,4.429
	C38.415,18.086,36.424,16.097,36.424,13.657z M43.485,65.218c0,1.454-1.177,2.63-2.628,2.63s-2.63-1.176-2.63-2.63
	c0-1.451,1.178-2.631,2.63-2.631C42.309,62.585,43.485,63.767,43.485,65.218z"/>
</svg>
