<?xml version="1.0" encoding="utf-8"?>
<!-- Generator: Adobe Illustrator 13.0.0, SVG Export Plug-In . SVG Version: 6.00 Build 14948)  -->
<!DOCTYPE svg PUBLIC "-//W3C//DTD SVG 1.1//EN" "http://www.w3.org/Graphics/SVG/1.1/DTD/svg11.dtd">
<svg version="1.1" id="Capa_1" xmlns="http://www.w3.org/2000/svg" xmlns:xlink="http://www.w3.org/1999/xlink" x="0px" y="0px"
	 width="500px" height="500px" viewBox="0 0 500 500" enable-background="new 0 0 500 500" xml:space="preserve">
<path d="M491.562,363.84l-90.924-90.926l78.893-78.894c7.058-7.057,9.959-17.262,7.668-26.976
	c-2.287-9.715-9.442-17.552-18.908-20.713L37.935,2.528C27.579-0.937,16.156,1.757,8.438,9.479
	C0.717,17.2-1.974,28.621,1.486,38.976l143.808,430.357c3.161,9.466,11,16.619,20.713,18.908c9.704,2.291,19.916-0.609,26.976-7.668
	l80.973-80.973l90.926,90.924c5.625,5.625,12.997,8.438,20.368,8.438c7.37,0,14.744-2.813,20.367-8.438l85.946-85.946
	C502.811,393.329,502.811,375.089,491.562,363.84z M390.554,437.816l-92.352-91.348c-6.146-6.146-14.201-9.22-22.255-9.22
	c-8.053,0-16.111,3.074-22.254,9.22l-74.751,74.751L57.925,59.061l362.156,121.018l-72.478,72.477
	c-12.292,12.29-12.292,32.22,0,44.512l92.349,91.351L390.554,437.816z"/>
</svg>
