<?xml version="1.0" encoding="utf-8"?>
<!-- Generator: Adobe Illustrator 13.0.0, SVG Export Plug-In . SVG Version: 6.00 Build 14948)  -->
<!DOCTYPE svg PUBLIC "-//W3C//DTD SVG 1.1//EN" "http://www.w3.org/Graphics/SVG/1.1/DTD/svg11.dtd">
<svg version="1.1" id="Capa_1" xmlns="http://www.w3.org/2000/svg" xmlns:xlink="http://www.w3.org/1999/xlink" x="0px" y="0px"
	 width="500px" height="500px" viewBox="0 0 500 500" enable-background="new 0 0 500 500" xml:space="preserve">
<g id="Update">
	<g>
		<path d="M0,39.063v125C0,177,10.5,187.5,23.437,187.5h125c12.938,0,23.438-10.5,23.438-23.438s-10.5-23.438-23.438-23.438H78.921
			C116.094,82.391,179.906,46.875,250,46.875C362,46.875,453.125,138,453.125,250S362,453.125,250,453.125
			c-82.563,0-156.297-49.313-187.828-125.641c-2.484-5.969-7.156-10.406-12.688-12.703s-11.938-2.484-17.906-0.016
			c-6,2.484-10.422,7.156-12.719,12.703c-2.297,5.516-2.484,11.922-0.016,17.906C57.655,439.297,148.39,500,250,500
			c137.844,0,250-112.156,250-250S387.844,0,250,0C168.25,0,93.406,39.219,46.875,104.297V39.063
			c0-12.938-10.5-23.438-23.438-23.438S0,26.125,0,39.063z"/>
	</g>
</g>
</svg>
