<?xml version="1.0" encoding="utf-8"?>
<!-- Generator: Adobe Illustrator 13.0.0, SVG Export Plug-In . SVG Version: 6.00 Build 14948)  -->
<!DOCTYPE svg PUBLIC "-//W3C//DTD SVG 1.1//EN" "http://www.w3.org/Graphics/SVG/1.1/DTD/svg11.dtd">
<svg version="1.1" id="Capa_1" xmlns="http://www.w3.org/2000/svg" xmlns:xlink="http://www.w3.org/1999/xlink" x="0px" y="0px"
	 width="1792px" height="1792px" viewBox="0 0 1792 1792" enable-background="new 0 0 1792 1792" xml:space="preserve">
<path d="M1312,256H480c-44,0-81.666,15.666-113,47c-31.332,31.333-47,69-47,113v832c0,44,15.668,81.666,47,113
	c31.334,31.332,69,47,113,47h832c44,0,81.668-15.668,113-47c31.334-31.334,47-69,47-113V416c0-44-15.666-81.667-47-113
	C1393.668,271.666,1356,256,1312,256z M1600,416v832c0,79.332-28.166,147.166-84.5,203.5c-56.332,56.332-124.166,84.5-203.5,84.5
	H480c-79.332,0-147.166-28.168-203.5-84.5c-56.333-56.334-84.5-124.168-84.5-203.5V416c0-79.334,28.167-147.167,84.5-203.5
	C332.835,156.166,400.668,128,480,128h832c79.334,0,147.168,28.166,203.5,84.5C1571.834,268.833,1600,336.666,1600,416z"/>
<path d="M1325.72,470.401v366.041c0,36.604-26.621,63.229-63.223,63.229c-36.605,0-63.226-26.625-63.226-63.229l-1.663-211.304
	l-389.335,389.339c-24.957,24.956-64.889,24.956-89.846,0c-24.96-24.96-24.96-64.89-0.003-89.847l389.335-389.341H898.119
	c-36.605,0-64.888-28.284-64.888-64.889c0-36.602,26.62-63.225,63.224-63.225h366.043c16.637,0,33.274,6.657,44.922,18.302
	C1319.066,437.125,1325.72,453.764,1325.72,470.401z"/>
</svg>
