<?xml version="1.0" encoding="utf-8"?>
<!-- Generator: Adobe Illustrator 13.0.0, SVG Export Plug-In . SVG Version: 6.00 Build 14948)  -->
<!DOCTYPE svg PUBLIC "-//W3C//DTD SVG 1.1//EN" "http://www.w3.org/Graphics/SVG/1.1/DTD/svg11.dtd">
<svg version="1.1" id="Capa_1" xmlns="http://www.w3.org/2000/svg" xmlns:xlink="http://www.w3.org/1999/xlink" x="0px" y="0px"
	 width="314.068px" height="314.068px" viewBox="0 0 314.068 314.068" enable-background="new 0 0 314.068 314.068"
	 xml:space="preserve">
<g>
	<g id="_x34_93._Back">
		<g>
			<path d="M78.535,293.009c75.091,43.354,171.115,17.62,214.466-57.467c43.363-75.1,17.632-171.131-57.463-214.481
				C160.448-22.295,64.429,3.436,21.065,78.525C-22.296,153.621,3.44,249.648,78.535,293.009z M48.259,94.232
				C82.943,34.154,159.766,13.57,219.837,48.253c60.077,34.683,80.662,111.509,45.972,171.58
				c-34.682,60.083-111.501,80.653-171.576,45.969C34.16,231.118,13.574,154.308,48.259,94.232z M86.385,157.031v0.009
				c0,8.66,7.028,15.701,15.697,15.701h65.499l-17.606,17.601c-6.124,6.124-6.124,16.07,0,22.201c6.129,6.128,16.078,6.128,22.207,0
				l44.402-44.402c6.129-6.135,6.129-16.082,0-22.213l-44.402-44.4c-6.129-6.133-16.078-6.133-22.207,0
				c-6.124,6.121-6.124,16.068,0,22.197l17.599,17.604h-65.49C93.414,141.328,86.386,148.353,86.385,157.031z"/>
		</g>
	</g>
</g>
</svg>
