<?xml version="1.0" encoding="utf-8"?>
<!-- Generator: Adobe Illustrator 13.0.0, SVG Export Plug-In . SVG Version: 6.00 Build 14948)  -->
<!DOCTYPE svg PUBLIC "-//W3C//DTD SVG 1.1//EN" "http://www.w3.org/Graphics/SVG/1.1/DTD/svg11.dtd">
<svg version="1.1" id="Capa_1" xmlns="http://www.w3.org/2000/svg" xmlns:xlink="http://www.w3.org/1999/xlink" x="0px" y="0px"
	 width="397.031px" height="397.031px" viewBox="0 0 397.031 397.031" enable-background="new 0 0 397.031 397.031"
	 xml:space="preserve">
<g>
	<g>
		<path d="M198.503,0C89.044,0,0.003,89.054,0.003,198.512c0,109.464,89.041,198.519,198.5,198.519
			c109.472,0,198.525-89.055,198.525-198.519C397.028,89.054,307.974,0,198.503,0z M198.503,362.016
			c-90.142,0-163.486-73.35-163.486-163.504c0-90.155,73.344-163.499,163.486-163.499c90.167,0,163.51,73.343,163.51,163.499
			C362.013,288.667,288.67,362.016,198.503,362.016z"/>
		<path d="M269.646,112.774l-172.514,92.01c-5.086,2.715-7.78,8.454-6.625,14.106c1.171,5.648,5.912,9.864,11.658,10.354
			l63.26,5.365l5.365,63.266c0.482,5.746,4.703,10.488,10.349,11.652c0.877,0.178,1.754,0.266,2.631,0.266
			c4.729,0,9.18-2.594,11.479-6.891l92.004-172.513c2.695-5.061,1.779-11.283-2.274-15.332
			C280.921,111.001,274.704,110.073,269.646,112.774z"/>
	</g>
</g>
</svg>
