<?xml version="1.0" encoding="utf-8"?>
<!-- Generator: Adobe Illustrator 13.0.0, SVG Export Plug-In . SVG Version: 6.00 Build 14948)  -->
<!DOCTYPE svg PUBLIC "-//W3C//DTD SVG 1.1//EN" "http://www.w3.org/Graphics/SVG/1.1/DTD/svg11.dtd">
<svg version="1.1" id="Capa_1" xmlns="http://www.w3.org/2000/svg" xmlns:xlink="http://www.w3.org/1999/xlink" x="0px" y="0px"
	 width="500px" height="500px" viewBox="0 0 500 500" enable-background="new 0 0 500 500" xml:space="preserve">
<path d="M475.515,225.511H446.76C436.902,134.483,365.09,61.906,274.497,50.66V24.498c0-13.539-10.953-24.497-24.497-24.497
	c-13.512,0-24.48,10.958-24.48,24.497V50.66C134.924,61.906,63.112,134.482,53.271,225.511H24.516
	C10.969,225.511,0,236.469,0,249.991c0,13.536,10.969,24.495,24.517,24.495h29.668c12.375,88.122,82.777,157.737,171.336,168.729
	v32.282c0,13.537,10.969,24.498,24.48,24.498c13.544,0,24.497-10.961,24.497-24.498v-32.282
	c88.54-10.992,158.963-80.607,171.314-168.729h29.704c13.53,0,24.485-10.959,24.485-24.495
	C500,236.469,489.046,225.511,475.515,225.511z M250,396.406c-82.397,0-149.457-67.055-149.457-149.466
	c0-82.414,67.06-149.464,149.457-149.464c82.426,0,149.474,67.051,149.474,149.464C399.474,329.35,332.427,396.406,250,396.406z
	 M250,164.592c-45.46,0-82.336,36.866-82.336,82.347c0,45.469,36.874,82.348,82.336,82.348c45.498,0,82.336-36.878,82.336-82.348
	C332.336,201.459,295.5,164.592,250,164.592z"/>
</svg>
