<?xml version="1.0" encoding="utf-8"?>
<!-- Generator: Adobe Illustrator 13.0.0, SVG Export Plug-In . SVG Version: 6.00 Build 14948)  -->
<!DOCTYPE svg PUBLIC "-//W3C//DTD SVG 1.1//EN" "http://www.w3.org/Graphics/SVG/1.1/DTD/svg11.dtd">
<svg version="1.1" id="Capa_1" xmlns="http://www.w3.org/2000/svg" xmlns:xlink="http://www.w3.org/1999/xlink" x="0px" y="0px"
	 width="29.334px" height="29.334px" viewBox="0 0 29.334 29.334" enable-background="new 0 0 29.334 29.334" xml:space="preserve">
<path d="M14.666,0C6.578,0,0,6.58,0,14.667s6.578,14.667,14.666,14.667s14.668-6.58,14.668-14.667S22.754,0,14.666,0z
	 M14.666,26.792c-6.687,0-12.125-5.439-12.125-12.125c0-6.686,5.438-12.125,12.125-12.125s12.126,5.439,12.126,12.125
	C26.792,21.353,21.351,26.792,14.666,26.792z M22.666,14.667c0,4.418-3.582,8.001-8,8.001c-4.417,0-8-3.581-8-8.001
	c0-4.418,3.583-8.001,8-8.001C19.084,6.666,22.666,10.249,22.666,14.667z"/>
</svg>
