<?xml version="1.0" encoding="iso-8859-1"?>
<!-- Generator: Adobe Illustrator 18.0.0, SVG Export Plug-In . SVG Version: 6.00 Build 0)  -->
<!DOCTYPE svg PUBLIC "-//W3C//DTD SVG 1.1//EN" "http://www.w3.org/Graphics/SVG/1.1/DTD/svg11.dtd">
<svg version="1.1" id="Capa_1" xmlns="http://www.w3.org/2000/svg" xmlns:xlink="http://www.w3.org/1999/xlink" x="0px" y="0px"
	 viewBox="0 0 491.753 491.753" style="enable-background:new 0 0 491.753 491.753;" xml:space="preserve">
<g>
	<path d="M321.353,340.658c-25.602-9.445-53.175-2.212-71.144,16.054l-115.981-42.739c-1.816-25.547-18.104-48.939-43.708-58.375
		c-34.861-12.849-73.516,4.989-86.35,39.842c-12.85,34.861,4.988,73.524,39.85,86.351c25.611,9.444,53.168,2.219,71.136-16.047
		l115.981,42.747c1.824,25.555,18.12,48.938,43.723,58.366c34.846,12.858,73.508-4.997,86.343-39.85
		C374.06,392.154,356.206,353.499,321.353,340.658z"/>
	<path d="M479.854,49.813c-21.058-30.591-62.949-38.283-93.525-17.192c-22.472,15.474-32.448,42.166-27.88,67.383l-101.773,70.149
		c-21.931-13.229-50.44-13.398-72.902,2.083c-30.584,21.083-38.285,62.951-17.21,93.526c21.091,30.592,62.959,38.3,93.535,17.201
		c22.479-15.474,32.462-42.175,27.894-67.382l101.768-70.151c21.931,13.238,50.432,13.408,72.895-2.09
		C493.254,122.272,500.947,80.388,479.854,49.813z"/>
</g>
<g>
</g>
<g>
</g>
<g>
</g>
<g>
</g>
<g>
</g>
<g>
</g>
<g>
</g>
<g>
</g>
<g>
</g>
<g>
</g>
<g>
</g>
<g>
</g>
<g>
</g>
<g>
</g>
<g>
</g>
</svg>
