<?xml version="1.0" encoding="iso-8859-1"?>
<!-- Generator: Adobe Illustrator 16.0.0, SVG Export Plug-In . SVG Version: 6.00 Build 0)  -->
<!DOCTYPE svg PUBLIC "-//W3C//DTD SVG 1.1//EN" "http://www.w3.org/Graphics/SVG/1.1/DTD/svg11.dtd">
<svg version="1.1" id="Capa_1" xmlns="http://www.w3.org/2000/svg" xmlns:xlink="http://www.w3.org/1999/xlink" x="0px" y="0px"
	 width="485.213px" height="485.212px" viewBox="0 0 485.213 485.212" style="enable-background:new 0 0 485.213 485.212;"
	 xml:space="preserve">
<g>
	<path d="M424.562,303.257h-60.653v-60.651h60.653V303.257z M318.424,75.816c0,11.313-2.492,22.064-6.931,31.689l-68.886,135.1
		l-68.886-135.104c-4.441-9.621-6.926-20.372-6.926-31.685C166.795,33.939,200.732,0,242.607,0
		C284.48,0,318.424,33.941,318.424,75.816z M288.098,75.816c0-25.113-20.377-45.49-45.49-45.49c-25.114,0-45.49,20.376-45.49,45.49
		c0,25.114,20.376,45.488,45.49,45.488C267.721,121.304,288.098,100.93,288.098,75.816z M485.212,121.304v303.255
		c0,33.5-27.158,60.653-60.649,60.653H60.652c-33.493,0-60.651-27.153-60.651-60.653V121.304c0-33.493,27.158-60.653,60.651-60.653
		h77.354c-0.709,4.975-1.54,9.953-1.54,15.166c0,5.122,0.947,10.127,1.662,15.161h-16.823v90.978h56.327l15.459,30.327h-71.787
		v121.303h181.951V212.282h-11.159l41.49-81.384v51.058H454.89v-60.651c0-16.731-13.596-30.327-30.327-30.327h-77.445
		c0.742-5.034,1.629-10.009,1.629-15.161c0-5.213-0.798-10.19-1.54-15.166h77.356C458.054,60.651,485.212,87.811,485.212,121.304z
		 M90.979,363.906H30.328v60.653c0,16.736,13.623,30.327,30.324,30.327h30.327V363.906z M90.979,212.282H30.328v121.303h60.651
		V212.282z M90.979,90.978H60.652c-16.701,0-30.324,13.595-30.324,30.327v60.651h60.651V90.978z M303.256,363.906H121.305v90.98
		h181.951V363.906z M454.89,363.906H333.587v90.98h90.976c16.731,0,30.327-13.591,30.327-30.327V363.906z M454.89,212.282H333.587
		v121.303H454.89V212.282z"/>
</g>
<g>
</g>
<g>
</g>
<g>
</g>
<g>
</g>
<g>
</g>
<g>
</g>
<g>
</g>
<g>
</g>
<g>
</g>
<g>
</g>
<g>
</g>
<g>
</g>
<g>
</g>
<g>
</g>
<g>
</g>
</svg>
