<?xml version="1.0" encoding="utf-8"?>
<!-- Generator: Adobe Illustrator 13.0.0, SVG Export Plug-In . SVG Version: 6.00 Build 14948)  -->
<!DOCTYPE svg PUBLIC "-//W3C//DTD SVG 1.0//EN" "http://www.w3.org/TR/2001/REC-SVG-20010904/DTD/svg10.dtd">
<svg version="1.0" id="Capa_1" xmlns="http://www.w3.org/2000/svg" xmlns:xlink="http://www.w3.org/1999/xlink" x="0px" y="0px"
	 width="281.984px" height="286.484px" viewBox="0 0 281.984 286.484" enable-background="new 0 0 281.984 286.484"
	 xml:space="preserve">
<g id="XMLID_2_">
	<g>
		<g>
			<path d="M140.96,35.112c19.915,0,14.251,30.711,15.2,52.271c0.705,16.022-1.685,40.915,6.173,42.316
				c0.256,0.046,0.507,0.068,0.751,0.068c9.116,0,10.425-31.103,11.594-38.857c1.859-12.407,3.481-37.316,9.698-41.443
				c2.328-1.545,5.538-2.295,8.867-2.295c6.229,0,12.875,2.626,14.932,7.585c3.342,8.06-4.497,34.142-6.172,44.089
				c-2.319,13.844-9.454,39.494,2.646,39.671c0.034,0,0.068,0.001,0.103,0.001c6.677,0,9.765-9.967,13.619-19.936
				c3.854-9.967,8.475-19.936,18.211-19.936c0.785,0,1.602,0.064,2.455,0.199c16.093,2.539,5.6,25.774,1.765,36.144
				c-13.678,36.972-20.52,56.91-34.39,94.34c-1.754,4.726-6.031,17.917-7.054,18.517c-4.921,2.885-40.263,3.527-45.843,3.527
				c-10.283,0-34.707-0.194-45.843-3.527c-4.894-1.463-14.46-15.607-18.518-21.162c-14.144-19.363-18.64-27.766-33.507-45.843
				c-6.093-7.415-16.489-16.357-16.745-22.044c-0.371-8.139,9.179-13.923,14.099-14.107c0.146-0.005,0.292-0.008,0.438-0.008
				c8.387,0,16.163,8.673,21.606,14.115c2.576,2.576,12.428,16.182,18.753,16.182c0.537,0,1.048-0.099,1.528-0.31
				c6.26-2.762-1.095-18.634-3.527-24.69c-7.283-18.138-13.042-30.845-19.399-46.725c-2.954-7.389-8.535-18.323-7.936-24.689
				c0.8-8.464,8.067-13.293,15.288-13.293c0.49,0,0.979,0.022,1.466,0.067c13.05,1.208,16.815,22.221,21.162,32.625
				c3.228,7.742,6.578,18.112,12.345,28.208c-0.009,0,3.857,7.068,6.003,7.068c0.055,0,0.108-0.005,0.161-0.014
				c6.066-1.076,3.633-34.063,3.527-44.08c-0.229-22.256-7.778-50.729,13.226-53.779C138.819,35.196,139.926,35.112,140.96,35.112
				 M140.96,14.112c-2.052,0-4.187,0.16-6.346,0.475c-16.231,2.357-27.63,13.306-31.263,30.038
				c-0.572,2.637-0.944,5.327-1.166,8.048c-6.616-5.769-13.598-7.742-19.032-8.245c-1.133-0.104-2.273-0.156-3.401-0.156
				c-18.893,0.001-34.453,13.895-36.194,32.317c-0.979,10.399,3.503,20.81,7.459,29.996c0.707,1.641,1.375,3.191,1.884,4.465
				c1.82,4.548,3.57,8.787,5.321,12.97c-1.547-0.219-3.141-0.337-4.783-0.337c-0.398,0-0.801,0.007-1.2,0.021
				c-8.923,0.335-18.631,5.085-25.36,12.398c-6.164,6.698-9.344,15.097-8.955,23.651c0.528,11.766,8.584,20.395,16.375,28.74
				c1.948,2.086,3.787,4.057,5.123,5.682c8.978,10.917,13.854,17.961,20.027,26.879c3.519,5.084,7.507,10.846,12.746,18.018
				c0.48,0.657,1.042,1.443,1.669,2.318c10.05,14.04,17.414,23.475,27.792,26.577c10.044,3.006,26.525,4.407,51.858,4.407
				c3.269,0,13.91-0.179,24.246-0.71c20.839-1.07,27.199-2.76,32.217-5.701c6.907-4.05,9.27-10.325,11.168-15.369
				c1.052-2.796,2.211-6.133,3.233-9.077c0.68-1.957,1.321-3.806,1.72-4.879c7.104-19.169,12.454-34,17.629-48.342
				c4.96-13.749,10.09-27.967,16.769-46.02c0.298-0.805,0.639-1.691,1.004-2.644c4.765-12.412,11.964-31.169,2.905-46.848
				c-4.59-7.944-12.437-13.158-22.097-14.682c-1.919-0.303-3.845-0.456-5.728-0.456c-3.002,0-5.932,0.389-8.748,1.146
				c2.583-13.33,3.268-23.574-0.26-32.08c-5.177-12.479-18.651-20.542-34.33-20.542c-7.683,0-14.764,2.005-20.479,5.797
				c-0.409,0.272-0.808,0.551-1.195,0.84c-1.615-3.205-3.678-6.19-6.31-8.868C158.938,17.511,150.535,14.112,140.96,14.112
				L140.96,14.112z"/>
		</g>
	</g>
</g>
</svg>
