<?xml version="1.0" encoding="utf-8"?>
<!-- Generator: Adobe Illustrator 13.0.0, SVG Export Plug-In . SVG Version: 6.00 Build 14948)  -->
<!DOCTYPE svg PUBLIC "-//W3C//DTD SVG 1.1//EN" "http://www.w3.org/Graphics/SVG/1.1/DTD/svg11.dtd">
<svg version="1.1" id="Capa_1" xmlns="http://www.w3.org/2000/svg" xmlns:xlink="http://www.w3.org/1999/xlink" x="0px" y="0px"
	 width="322.877px" height="322.877px" viewBox="0 0 322.877 322.877" enable-background="new 0 0 322.877 322.877"
	 xml:space="preserve">
<g>
	<g>
		<g>
			<g>
				<path d="M41.437,186.983c0.001-7.732,3.184-15.433,9.42-20.973c11.576-10.278,29.297-9.233,39.57,2.344l9.928,11.172V53.033
					c0-15.484,12.546-28.035,28.033-28.035c15.478,0,28.033,12.551,28.033,28.035v65.576c4.188-2.483,9.052-3.935,14.271-3.935
					c11.893,0,22.037,7.416,26.109,17.882c4.358-2.791,9.521-4.429,15.079-4.429c13.701,0,25.089,9.824,27.533,22.81
					c4.116-2.369,8.877-3.748,13.963-3.748c15.478,0,28.033,12.556,28.033,28.036l0.026,68.719c0,29.787-26.975,53.93-60.242,53.93
					h-60.223c-18.03,0-39.008-11.393-51.304-23.428l-61.155-68.855C43.77,200.25,41.437,193.606,41.437,186.983 M16.437,186.981
					L16.437,186.981c-0.001,12.99,4.753,25.496,13.387,35.213l61.152,68.854c0.387,0.437,0.789,0.857,1.205,1.266
					c8.258,8.083,18.961,15.499,30.139,20.884c13.143,6.332,26.51,9.678,38.652,9.678h60.223c22.252,0,43.304-7.873,59.271-22.168
					c16.746-14.994,25.971-35.151,25.971-56.763l-0.025-68.729c0-29.233-23.79-53.024-53.032-53.024
					c-0.258,0-0.517,0.002-0.772,0.006c-9.813-11.745-24.551-19.064-40.726-19.064c-1.87,0-3.731,0.099-5.579,0.296
					c-1.673-1.519-3.445-2.933-5.316-4.234c-5.939-4.146-12.572-6.99-19.563-8.428v-37.73c0-29.243-23.791-53.034-53.032-53.034
					c-29.242,0-53.034,23.791-53.034,53.034v81.231c-0.909-0.103-1.826-0.18-2.748-0.232c-14.138-0.838-27.757,3.882-38.347,13.283
					C22.933,157.377,16.439,171.832,16.437,186.981L16.437,186.981L16.437,186.981z"/>
			</g>
		</g>
	</g>
</g>
</svg>
