<?xml version="1.0" encoding="utf-8"?>
<!-- Generator: Adobe Illustrator 13.0.0, SVG Export Plug-In . SVG Version: 6.00 Build 14948)  -->
<!DOCTYPE svg PUBLIC "-//W3C//DTD SVG 1.1//EN" "http://www.w3.org/Graphics/SVG/1.1/DTD/svg11.dtd">
<svg version="1.1" id="Capa_1" xmlns="http://www.w3.org/2000/svg" xmlns:xlink="http://www.w3.org/1999/xlink" x="0px" y="0px"
	 width="340.857px" height="340.857px" viewBox="0 0 340.857 340.857" enable-background="new 0 0 340.857 340.857"
	 xml:space="preserve">
<path d="M327.51,93.257c0.033-17.871-14.453-32.378-32.326-32.39c-13.133-0.02-24.387,7.821-29.475,19.054L71.25,79.858
	C66.186,68.62,54.945,60.754,41.816,60.74C23.939,60.721,9.436,75.193,9.418,93.064c-0.017,17.882,14.453,32.387,32.331,32.396
	c13.134,0.022,24.393-7.817,29.479-19.05l194.459,0.063c5.061,11.238,16.299,19.104,29.434,19.111
	C312.997,125.613,327.498,111.133,327.51,93.257z"/>
<g>
	<g>
		<path d="M327.928,213.413H14.553v117.516h313.375V213.413z M34.139,311.343v-78.344h29.379v39.172h19.586v-39.172h19.586v19.586
			h19.586v-19.586h19.586v39.172h19.586v-39.172h19.586v19.586h19.586v-19.586h19.586v39.172h19.586v-39.172h19.586v19.586h19.586
			v-19.586h29.379v78.344H34.139z"/>
	</g>
</g>
</svg>
