<?xml version="1.0" encoding="utf-8"?>
<!-- Generator: Adobe Illustrator 13.0.0, SVG Export Plug-In . SVG Version: 6.00 Build 14948)  -->
<!DOCTYPE svg PUBLIC "-//W3C//DTD SVG 1.1//EN" "http://www.w3.org/Graphics/SVG/1.1/DTD/svg11.dtd">
<svg version="1.1" id="Capa_1" xmlns="http://www.w3.org/2000/svg" xmlns:xlink="http://www.w3.org/1999/xlink" x="0px" y="0px"
	 width="340.857px" height="340.857px" viewBox="0 0 340.857 340.857" enable-background="new 0 0 340.857 340.857"
	 xml:space="preserve">
<g>
	<g>
		<path d="M327.928,213.413H14.553v117.517h313.375V213.413z M34.139,311.343v-78.344h29.379v39.172h19.586v-39.172h19.586v19.586
			h19.586v-19.586h19.586v39.172h19.586v-39.172h19.586v19.586h19.586v-19.586h19.586v39.172h19.586v-39.172h19.586v19.586h19.586
			v-19.586h29.38v78.344H34.139z"/>
	</g>
</g>
<path d="M131.776,178.783v-14l12.124-7l-12.124,7V178.783h-8.084L77.589,98.929l46.105-79.854h92.204l46.107,79.854L215.9,178.783
	H131.776L131.776,178.783z M199.733,150.782l29.938-51.853l-29.938-51.855h-59.875L109.92,98.929l29.938,51.853H199.733
	L199.733,150.782z"/>
</svg>
