<?xml version="1.0" encoding="utf-8"?>
<!-- Generator: Adobe Illustrator 13.0.0, SVG Export Plug-In . SVG Version: 6.00 Build 14948)  -->
<!DOCTYPE svg PUBLIC "-//W3C//DTD SVG 1.1//EN" "http://www.w3.org/Graphics/SVG/1.1/DTD/svg11.dtd">
<svg version="1.1" id="Capa_1" xmlns="http://www.w3.org/2000/svg" xmlns:xlink="http://www.w3.org/1999/xlink" x="0px" y="0px"
	 width="500px" height="500px" viewBox="0 0 500 500" enable-background="new 0 0 500 500" xml:space="preserve">
<g id="Error">
	<g>
		<path d="M273.433,273.434h75.992c6.828,0,12.827-3.016,17.114-7.656c3.845-4.177,6.331-9.646,6.319-15.777
			c0-6.121-2.475-11.601-6.319-15.777c-4.275-4.651-10.286-7.657-17.114-7.657h-75.992 M277.566,226.566l-126.981-0.011
			c-6.828,0-12.827,3.016-17.114,7.657c-3.845,4.176-6.331,9.645-6.32,15.777c0,6.122,2.475,11.601,6.32,15.778
			c4.275,4.651,10.286,7.656,17.114,7.656l126.981,0.011 M73.223,73.223c-97.625,97.625-97.625,255.928,0,353.553
			c97.625,97.625,255.928,97.625,353.553,0s97.625-255.928,0-353.553C329.151-24.401,170.848-24.401,73.223,73.223z
			 M393.631,393.631c-79.195,79.196-208.066,79.196-287.262,0c-79.196-79.195-79.196-208.066,0-287.262
			c79.196-79.196,208.066-79.196,287.262,0C472.827,185.565,472.827,314.436,393.631,393.631z"/>
	</g>
</g>
</svg>
