<?xml version="1.0" encoding="iso-8859-1"?>
<!-- Generator: Adobe Illustrator 19.0.0, SVG Export Plug-In . SVG Version: 6.00 Build 0)  -->
<svg version="1.1" id="Capa_1" xmlns="http://www.w3.org/2000/svg" xmlns:xlink="http://www.w3.org/1999/xlink" x="0px" y="0px"
	 viewBox="0 0 487.201 487.201" style="enable-background:new 0 0 487.201 487.201;" xml:space="preserve">
<g>
	<path d="M487.201,241.269C486.035,108.105,377.347,0,243.6,0C110.145,0,1.166,108.105,0,241.561c0,0.583,0,1.166,0,1.748v0.291
		v0.291c0,0.583,0,1.166,0,1.748c1.166,133.456,109.853,241.561,243.6,241.561c133.456,0,242.435-108.105,243.6-241.269
		c0-0.583,0-1.457,0-2.04C487.201,243.309,487.201,241.852,487.201,241.269z M157.641,53.324
		c-19.232,27.973-34.092,65.271-42.251,108.396c-13.112,2.914-25.642,6.411-37.298,10.49c-13.987,4.954-25.934,9.907-35.549,15.152
		C59.443,127.628,101.986,78.675,157.641,53.324z M34.967,243.309c0-9.616,16.9-25.059,54.49-37.88
		c6.411-2.331,13.404-4.371,20.397-6.119c-1.457,14.278-2.04,29.139-2.04,44.291c0,15.152,0.874,30.013,2.04,44.291
		c-7.285-2.04-13.987-4.079-20.397-6.119C51.867,268.368,34.967,252.925,34.967,243.309z M42.834,299.255
		c9.616,5.245,21.271,10.49,35.549,15.152c11.364,3.788,23.894,7.285,37.298,10.49c8.45,43.125,23.02,80.714,42.543,108.396
		C101.986,407.943,59.443,358.99,42.834,299.255z M226.117,448.446c-18.357-7.285-36.423-25.934-50.701-53.324
		c-9.616-18.649-17.483-39.92-22.728-63.523c23.311,3.497,48.079,5.536,73.721,6.119v110.727H226.117z M226.117,302.752
		c-28.265-0.874-55.364-3.205-80.132-7.576c-2.04-16.901-3.205-34.092-3.205-51.867s1.166-35.258,3.205-51.867
		c24.768-4.079,51.867-6.702,80.132-7.576V302.752z M226.117,148.899c-25.642,0.583-50.41,2.622-73.721,6.119
		c5.536-23.311,13.112-44.874,22.728-63.523c14.278-27.39,32.344-46.039,50.701-53.324v110.727H226.117z M444.366,187.362
		c-9.616-5.245-21.271-10.49-35.549-15.152c-11.364-3.788-23.894-7.285-37.298-10.49c-8.45-43.125-23.02-80.714-42.543-108.396
		C385.215,78.675,427.757,127.628,444.366,187.362z M261.084,38.172c18.357,7.285,36.423,25.934,50.701,53.324
		c9.616,18.649,17.483,39.92,22.728,63.523c-23.311-3.497-48.079-5.536-73.721-6.119V38.172H261.084z M261.084,183.866
		c28.265,0.874,55.364,3.205,80.132,7.576c2.04,16.901,3.205,34.092,3.205,51.867s-1.166,35.258-3.205,51.867
		c-24.768,4.079-51.867,6.702-80.132,7.576V183.866z M261.084,448.446V337.719c25.642-0.583,50.41-2.622,73.721-6.119
		c-5.536,23.311-13.112,44.874-22.728,63.523C297.507,422.512,279.441,441.161,261.084,448.446z M329.56,433.294
		c19.232-27.973,34.092-65.271,42.543-108.396c13.112-2.914,25.642-6.411,37.298-10.49c13.987-4.954,25.934-9.907,35.549-15.152
		C427.757,358.99,385.215,407.943,329.56,433.294z M397.744,281.189c-6.411,2.331-13.404,4.371-20.397,6.119
		c1.457-14.278,2.04-29.139,2.04-44.291c0-15.152-0.874-30.013-2.04-44.291c7.285,2.04,13.987,4.079,20.397,6.119
		c37.589,12.821,54.49,28.265,54.49,37.88C452.234,252.342,435.333,268.368,397.744,281.189z"/>
</g>
<g>
</g>
<g>
</g>
<g>
</g>
<g>
</g>
<g>
</g>
<g>
</g>
<g>
</g>
<g>
</g>
<g>
</g>
<g>
</g>
<g>
</g>
<g>
</g>
<g>
</g>
<g>
</g>
<g>
</g>
</svg>
