<?xml version="1.0" encoding="utf-8"?>
<!-- Generator: Adobe Illustrator 13.0.0, SVG Export Plug-In . SVG Version: 6.00 Build 14948)  -->
<!DOCTYPE svg PUBLIC "-//W3C//DTD SVG 1.1//EN" "http://www.w3.org/Graphics/SVG/1.1/DTD/svg11.dtd">
<svg version="1.1" id="Layer_1" xmlns="http://www.w3.org/2000/svg" xmlns:xlink="http://www.w3.org/1999/xlink" x="0px" y="0px"
	 width="512px" height="512px" viewBox="0 0 512 512" enable-background="new 0 0 512 512" xml:space="preserve">
<g>
	<path fill="none" d="M177.704,103.156c4.963-12.341,10.51-23.276,16.619-32.724C123.257,94.11,70.16,157.593,61.658,234.27h90.845
		v0.001C154.502,185.155,163.173,139.377,177.704,103.156z"/>
	<path fill="none" d="M194.325,441.563c-6.108-9.445-11.656-20.382-16.618-32.724c-14.531-36.224-23.205-81.998-25.201-131.114
		H61.659C70.161,354.403,123.26,417.886,194.325,441.563z"/>
	<path fill="none" d="M273.835,427.917c6.903-7.851,13.978-19.914,20.134-35.269c12.371-30.757,20.132-71.104,22.045-114.921H195.99
		c1.912,43.816,9.672,84.162,22.042,114.921c4.621,11.519,9.739,21.182,14.94,28.607c5.184,7.435,10.484,12.57,15.052,15.225
		c3.061,1.786,5.692,2.492,7.975,2.492c2.281,0,4.912-0.707,7.971-2.492C267.012,434.701,270.395,431.846,273.835,427.917z"/>
	<path fill="none" d="M279.023,90.744c-5.185-7.436-10.481-12.57-15.055-15.224c-3.058-1.787-5.691-2.492-7.972-2.495
		c-2.28,0.002-4.911,0.708-7.974,2.495c-3.042,1.776-6.422,4.632-9.861,8.564c-6.903,7.846-13.981,19.911-20.134,35.266
		c-12.369,30.761-20.13,71.104-22.042,114.924H316.01v-0.001c-1.915-43.818-9.671-84.161-22.047-114.924
		C289.342,107.832,284.222,98.166,279.023,90.744z"/>
	<path fill="none" d="M359.497,277.731c-1.997,49.113-10.667,94.888-25.201,131.111c-4.959,12.34-10.504,23.275-16.613,32.723
		c71.058-23.685,124.159-87.168,132.664-163.834H359.497z"/>
	<path fill="none" d="M317.676,70.433c6.108,9.447,11.656,20.381,16.615,32.721c14.53,36.223,23.207,82,25.199,131.119h90.851
		C441.837,157.595,388.745,94.112,317.676,70.433z"/>
	<path d="M256,17.001L256,17.001c-131.806,0.011-238.989,107.192-239,239c0.011,131.801,107.197,238.984,239,239
		c131.807-0.016,238.986-107.199,239.001-239C494.986,124.195,387.804,17.013,256,17.001z M248.025,436.481
		c-4.569-2.654-9.868-7.79-15.052-15.225c-5.201-7.426-10.319-17.09-14.94-28.607c-12.369-30.758-20.13-71.104-22.042-114.921
		h120.022c-1.913,43.816-9.673,84.163-22.045,114.921c-6.155,15.354-13.23,27.42-20.134,35.269
		c-3.441,3.929-6.823,6.784-9.864,8.563c-3.059,1.786-5.689,2.492-7.971,2.492C253.716,438.973,251.086,438.267,248.025,436.481z
		 M152.506,277.725c1.997,49.115,10.67,94.891,25.201,131.114c4.963,12.342,10.509,23.278,16.618,32.724
		c-71.065-23.677-124.164-87.16-132.666-163.838H152.506z M61.658,234.269C70.16,157.592,123.257,94.108,194.323,70.43
		c-6.109,9.449-11.658,20.383-16.619,32.724c-14.531,36.222-23.202,82-25.201,131.116v-0.001H61.658L61.658,234.269z
		 M359.491,234.273c-1.992-49.118-10.668-94.896-25.199-131.119c-4.96-12.34-10.507-23.273-16.615-32.721
		c71.069,23.678,124.161,87.162,132.666,163.839H359.491z M316.01,234.274H195.986c1.912-43.819,9.67-84.162,22.042-114.924
		c6.152-15.354,13.231-27.421,20.134-35.266c3.439-3.932,6.819-6.788,9.861-8.564c3.063-1.787,5.693-2.492,7.974-2.495
		c2.281,0.002,4.915,0.708,7.972,2.495c4.574,2.654,9.87,7.789,15.055,15.224c5.199,7.421,10.318,17.088,14.94,28.604
		C306.339,150.112,314.096,190.456,316.01,234.274L316.01,234.274z M317.681,441.565c6.109-9.447,11.655-20.383,16.613-32.723
		c14.533-36.224,23.204-81.996,25.201-131.111h90.849C441.841,354.398,388.739,417.88,317.681,441.565z"/>
</g>
</svg>
