<?xml version="1.0" encoding="utf-8"?>
<!-- Generator: Adobe Illustrator 13.0.0, SVG Export Plug-In . SVG Version: 6.00 Build 14948)  -->
<!DOCTYPE svg PUBLIC "-//W3C//DTD SVG 1.1//EN" "http://www.w3.org/Graphics/SVG/1.1/DTD/svg11.dtd">
<svg version="1.1" id="Capa_1" xmlns="http://www.w3.org/2000/svg" xmlns:xlink="http://www.w3.org/1999/xlink" x="0px" y="0px"
	 width="500px" height="500px" viewBox="0 0 500 500" enable-background="new 0 0 500 500" xml:space="preserve">
<g id="Recycle_x5F_Bin">
	<g>
		<path d="M444.965,78.125H344.027V31.25c0-17.25-14-31.25-31.25-31.25H187.778c-17.25,0-31.25,14-31.25,31.25v46.875H55.591
			c-12.938,0-23.438,10.484-23.438,23.438S42.653,125,55.591,125h22.813v343.75c0,17.266,14,31.25,31.25,31.25h281.249
			c17.25,0,31.25-14,31.25-31.25V125h22.813c12.938,0,23.438-10.484,23.438-23.438S457.902,78.125,444.965,78.125z M203.403,46.875
			h93.749v31.25h-93.749V46.875z M375.277,453.125H125.278V125h249.999V453.125z"/>
	</g>
</g>
<path d="M230.721,381.778V206.335c0-11.175,8.381-19.556,19.556-19.556c11.176,0,19.557,8.381,19.557,19.556v175.443
	c0,11.175-8.381,19.556-19.557,19.556C239.102,401.333,230.721,392.952,230.721,381.778z"/>
<path d="M307.721,381.778V206.335c0-11.175,8.381-19.556,19.556-19.556c11.176,0,19.557,8.381,19.557,19.556v175.443
	c0,11.175-8.381,19.556-19.557,19.556C316.102,401.333,307.721,392.952,307.721,381.778z"/>
<path d="M153.721,381.778V206.335c0-11.175,8.381-19.556,19.556-19.556c11.176,0,19.557,8.381,19.557,19.556v175.443
	c0,11.175-8.381,19.556-19.557,19.556C162.102,401.333,153.721,392.952,153.721,381.778z"/>
</svg>
