<?xml version="1.0" encoding="utf-8"?>
<!-- Generator: Adobe Illustrator 13.0.0, SVG Export Plug-In . SVG Version: 6.00 Build 14948)  -->
<!DOCTYPE svg PUBLIC "-//W3C//DTD SVG 1.1//EN" "http://www.w3.org/Graphics/SVG/1.1/DTD/svg11.dtd">
<svg version="1.1" id="Capa_1" xmlns="http://www.w3.org/2000/svg" xmlns:xlink="http://www.w3.org/1999/xlink" x="0px" y="0px"
	 width="500px" height="500px" viewBox="0 0 500 500" enable-background="new 0 0 500 500" xml:space="preserve">
<g>
	<path fill="none" d="M395.662,236.224c3.496-12.364,5.262-23.613,5.246-32.84c-0.009-41.644-16.883-79.245-44.259-106.652
		C329.244,69.358,291.642,52.482,250,52.473c-41.644,0.008-79.246,16.884-106.651,44.258c-27.376,27.407-44.25,65.007-44.26,106.652
		c-0.024,10.83,2.433,24.434,7.208,39.372c4.754,14.948,11.742,31.225,20.233,47.748c16.967,33.07,39.928,67.122,62.337,95.149
		c14.918,18.683,29.649,34.745,41.811,45.964c6.907,6.402,13.048,11.218,17.244,13.849c0.77,0.49,1.473,0.902,2.079,1.235
		c2.308-1.267,5.889-3.679,10.031-7.023c8.694-6.971,19.938-17.896,31.911-31.289c24.021-26.811,51.23-63.639,72.278-100.79
		C378.276,282.859,389.577,257.894,395.662,236.224z M250.031,318.661c-0.009,0-0.021,0-0.03,0
		c-31.747,0.009-60.691-12.971-81.483-33.798c-20.827-20.792-33.806-49.737-33.797-81.483c-0.009-31.746,12.97-60.692,33.795-81.486
		c20.794-20.826,49.739-33.804,81.485-33.795c31.744-0.009,60.689,12.969,81.483,33.795c20.825,20.793,33.804,49.74,33.795,81.486
		c0.009,31.746-12.97,60.689-33.795,81.483C310.699,305.685,281.764,318.662,250.031,318.661z"/>
	<path fill="none" d="M250.001,132.099c-19.688,0.009-37.384,7.954-50.373,20.908c-12.955,12.988-20.898,30.684-20.907,50.373
		c0.008,19.688,7.952,37.382,20.907,50.371c12.989,12.957,30.685,20.898,50.373,20.908c19.688-0.01,37.382-7.951,50.37-20.908
		c12.955-12.988,20.899-30.683,20.908-50.371c-0.009-19.689-7.953-37.384-20.908-50.373
		C287.383,140.052,269.687,132.108,250.001,132.099z"/>
	<path fill="none" d="M442.311,392.019H421.9V371.65c0-8.502-6.791-15.391-15.292-15.391c-8.495,0-15.291,6.889-15.291,15.391
		v20.363h-20.414c-8.499,0-15.413,6.889-15.413,15.387c0,8.502,6.926,15.392,15.424,15.392h20.403v20.372
		c0,8.498,6.796,15.389,15.291,15.389c8.498,0,15.292-6.891,15.292-15.389v-20.364h20.411c8.498,0,15.394-6.889,15.394-15.388
		C457.705,398.913,450.809,392.019,442.311,392.019z"/>
	<path d="M331.484,121.894c-20.794-20.826-49.739-33.804-81.483-33.795c-31.746-0.009-60.691,12.969-81.485,33.795
		c-20.825,20.794-33.804,49.74-33.795,81.486c-0.009,31.746,12.97,60.691,33.797,81.483c20.792,20.827,49.736,33.807,81.483,33.798
		c0.009,0,0.021,0,0.03,0c31.733,0.001,60.668-12.977,81.453-33.798c20.825-20.794,33.804-49.737,33.795-81.483
		C365.288,171.634,352.309,142.687,331.484,121.894z M300.371,253.751c-12.988,12.957-30.682,20.898-50.37,20.908
		c-19.688-0.01-37.384-7.951-50.373-20.908c-12.955-12.989-20.899-30.683-20.907-50.371c0.009-19.689,7.952-37.385,20.907-50.373
		c12.989-12.954,30.685-20.899,50.373-20.908c19.687,0.009,37.382,7.953,50.37,20.908c12.955,12.989,20.899,30.684,20.908,50.373
		C321.27,223.069,313.326,240.763,300.371,253.751z"/>
	<path d="M408.203,318.947c0.545-1.012,1.102-2.021,1.638-3.033c10.086-19.07,18.709-38.321,24.938-57.188
		c6.201-18.879,10.104-37.372,10.133-55.342c0.009-53.7-21.898-102.553-57.145-137.766C352.555,30.372,303.701,8.464,250.002,8.472
		c-53.702-0.008-102.555,21.9-137.766,57.146c-35.247,35.213-57.153,84.063-57.146,137.766c0.015,14.608,2.618,29.551,6.897,44.777
		c7.524,26.613,20.261,54.206,35.516,81.145c22.916,40.366,51.526,79.077,77.766,108.426c13.16,14.686,25.652,26.995,37.13,36.239
		c5.775,4.629,11.268,8.51,17.005,11.615c2.883,1.549,5.841,2.911,9.143,4.002c3.304,1.068,6.982,1.922,11.455,1.942
		c6.809-0.082,11.789-1.866,16.396-3.868c8.506-3.886,16.105-9.404,24.515-16.417c10.256-8.649,21.37-19.677,32.922-32.522
		c12.647,33.405,44.932,57.162,82.77,57.162c48.86,0,88.478-39.617,88.478-88.479C495.082,359.077,456.332,319.8,408.203,318.947z
		 M291.943,408.388c-11.973,13.394-23.217,24.318-31.911,31.289c-4.143,3.345-7.724,5.757-10.031,7.023
		c-0.606-0.333-1.31-0.745-2.079-1.235c-4.196-2.631-10.337-7.446-17.244-13.849c-12.161-11.219-26.893-27.281-41.811-45.964
		c-22.409-28.027-45.37-62.079-62.337-95.149c-8.491-16.523-15.479-32.8-20.233-47.748c-4.775-14.938-7.232-28.542-7.208-39.372
		c0.01-41.646,16.884-79.245,44.26-106.652C170.754,69.357,208.356,52.481,250,52.473c41.643,0.009,79.244,16.885,106.649,44.259
		c27.376,27.407,44.25,65.009,44.259,106.652c0.016,9.227-1.75,20.476-5.246,32.84c-6.085,21.67-17.386,46.635-31.44,71.374
		C343.174,344.749,315.964,381.577,291.943,408.388z M442.311,422.799H421.9v20.364c0,8.498-6.794,15.389-15.292,15.389
		c-8.495,0-15.291-6.891-15.291-15.389v-20.372h-20.403c-8.498,0-15.424-6.89-15.424-15.392c0-8.498,6.914-15.387,15.413-15.387
		h20.414V371.65c0-8.502,6.796-15.391,15.291-15.391c8.501,0,15.292,6.889,15.292,15.391v20.369h20.411
		c8.498,0,15.394,6.895,15.394,15.393C457.705,415.91,450.809,422.799,442.311,422.799z"/>
</g>
</svg>
