<?xml version="1.0" encoding="utf-8"?>
<!-- Generator: Adobe Illustrator 13.0.0, SVG Export Plug-In . SVG Version: 6.00 Build 14948)  -->
<!DOCTYPE svg PUBLIC "-//W3C//DTD SVG 1.1//EN" "http://www.w3.org/Graphics/SVG/1.1/DTD/svg11.dtd">
<svg version="1.1" id="Capa_1" xmlns="http://www.w3.org/2000/svg" xmlns:xlink="http://www.w3.org/1999/xlink" x="0px" y="0px"
	 width="500px" height="500px" viewBox="0 0 500 500" enable-background="new 0 0 500 500" xml:space="preserve">
<g>
	<path d="M238.547,489.587c-3.302-1.09-6.26-2.455-9.143-4.002l0,0c-5.737-3.105-11.229-6.986-17.005-11.615l0,0
		c-11.477-9.244-23.97-21.554-37.13-36.239l0,0c-26.239-29.349-54.849-68.06-77.765-108.426l0,0
		c-15.255-26.939-27.992-54.533-35.516-81.145l0,0c-4.279-15.226-6.883-30.172-6.897-44.777l0,0
		c-0.008-53.702,21.898-102.555,57.145-137.766l0,0C147.446,30.37,196.299,8.464,250.001,8.472l0,0
		C303.7,8.464,352.552,30.37,387.764,65.617l0,0c35.244,35.211,57.153,84.064,57.145,137.766l0,0
		c-0.029,17.97-3.932,36.463-10.133,55.342l0,0c-6.229,18.865-14.852,38.118-24.938,57.188l0,0
		c-20.186,38.112-46.224,75.49-71.346,105.822l0,0c-16.79,20.233-33.046,37.251-47.581,49.51l0,0
		c-8.409,7.012-16.009,12.531-24.515,16.417l0,0c-4.607,2.002-9.588,3.786-16.396,3.868l0,0v-22v-13.4v-8.602v22.002v22
		C245.529,491.509,241.85,490.656,238.547,489.587L238.547,489.587z M143.348,96.728c-27.376,27.408-44.25,65.01-44.259,106.655l0,0
		c-0.025,10.827,2.432,24.434,7.208,39.372l0,0c4.754,14.948,11.742,31.223,20.233,47.748l0,0
		c16.967,33.071,39.928,67.122,62.337,95.147l0,0c14.918,18.685,29.649,34.748,41.81,45.967l0,0
		c6.908,6.402,13.048,11.217,17.245,13.848l0,0c0.769,0.491,1.472,0.903,2.079,1.236l0,0c2.307-1.267,5.888-3.679,10.031-7.024l0,0
		c8.694-6.97,19.938-17.895,31.911-31.289l0,0c24.02-26.811,51.23-63.639,72.278-100.79l0,0
		c14.055-24.741,25.356-49.706,31.441-71.374l0,0c3.496-12.364,5.261-23.613,5.246-32.84l0,0
		c-0.009-41.645-16.883-79.247-44.259-106.652l0,0c-27.405-27.376-65.007-44.25-106.649-44.259l0,0
		C208.356,52.481,170.754,69.355,143.348,96.728L143.348,96.728z M250.001,318.661c-31.747,0.009-60.692-12.97-81.486-33.797l0,0
		c-20.825-20.792-33.805-49.738-33.795-81.484l0,0c-0.01-31.746,12.97-60.692,33.795-81.486l0,0
		c20.794-20.826,49.74-33.804,81.486-33.795l0,0v22v22c-19.689,0.009-37.384,7.954-50.373,20.908l0,0
		c-12.955,12.988-20.899,30.684-20.908,50.373l0,0c0.008,19.689,7.953,37.384,20.908,50.371l0,0
		c12.989,12.957,30.684,20.899,50.373,20.908l0,0c19.687-0.009,37.382-7.951,50.37-20.908l0,0
		c12.955-12.986,20.899-30.682,20.908-50.371l0,0c-0.009-19.689-7.953-37.384-20.908-50.373l0,0
		c-12.988-12.955-30.684-20.899-50.37-20.908l0,0v-22v-22c31.744-0.009,60.689,12.969,81.483,33.795l0,0
		c20.825,20.793,33.804,49.74,33.795,81.486l0,0c0.009,31.746-12.97,60.69-33.795,81.484l0,0
		c-20.787,20.821-49.72,33.798-81.453,33.797l0,0C250.022,318.661,250.01,318.661,250.001,318.661L250.001,318.661z"/>
</g>
</svg>
