<?xml version="1.0" encoding="utf-8"?>
<!-- Generator: Adobe Illustrator 13.0.0, SVG Export Plug-In . SVG Version: 6.00 Build 14948)  -->
<!DOCTYPE svg PUBLIC "-//W3C//DTD SVG 1.1//EN" "http://www.w3.org/Graphics/SVG/1.1/DTD/svg11.dtd">
<svg version="1.1" id="Capa_1" xmlns="http://www.w3.org/2000/svg" xmlns:xlink="http://www.w3.org/1999/xlink" x="0px" y="0px"
	 width="500px" height="500px" viewBox="0 0 500 500" enable-background="new 0 0 500 500" xml:space="preserve">
<path d="M250.002,0C139.825,0,50.515,89.314,50.515,199.487S229.429,500,250.002,500c21.345,0,199.482-190.341,199.482-300.514
	C449.485,89.314,360.172,0,250.002,0z M107.105,193.684c0-79.313,64.297-143.61,143.609-143.61
	c79.316,0,143.611,64.297,143.611,143.61c0,41.4-17.521,78.705-45.548,104.912c-0.229,0.215-3.448,1.821-4.185-0.499l-24.181-74.617
	c-3.507-9.444-12.979-14.775-22.62-14.775c-4.814,0-5.262,0.128-8.126,0.128h-86.043c-11.001,0-19.097,5.203-22.605,14.647
	l-24.398,74.188c-1.097,3.033-3.646,1.209-3.726,1.134C124.599,272.574,107.105,235.308,107.105,193.684z M251.26,77.801
	c32.642,0,59.104,26.189,59.104,58.496s-26.462,58.496-59.104,58.496c-32.643,0-59.104-26.189-59.104-58.496
	S218.618,77.801,251.26,77.801z"/>
</svg>
