<?xml version="1.0" encoding="utf-8"?>
<!-- Generator: Adobe Illustrator 13.0.0, SVG Export Plug-In . SVG Version: 6.00 Build 14948)  -->
<!DOCTYPE svg PUBLIC "-//W3C//DTD SVG 1.1//EN" "http://www.w3.org/Graphics/SVG/1.1/DTD/svg11.dtd">
<svg version="1.1" id="Capa_1" xmlns="http://www.w3.org/2000/svg" xmlns:xlink="http://www.w3.org/1999/xlink" x="0px" y="0px"
	 width="500px" height="545.5px" viewBox="0 0 500 545.5" enable-background="new 0 0 500 545.5" xml:space="preserve">
<path d="M387.313,65.623c-35.201-35.24-84.04-57.146-137.724-57.146c-0.019,0-0.026,0-0.04,0c-0.01,0-0.018,0-0.036,0
	c-53.684,0-102.522,21.906-137.724,57.146c-35.24,35.2-57.146,84.04-57.146,137.723c0,0.019,0,0.027,0,0.037
	c0.01,7.304,0.661,14.69,1.85,22.16c1.192,7.46,2.91,15,5.05,22.62c3.758,13.3,8.82,26.859,14.86,40.45
	c6.03,13.59,13.018,27.227,20.646,40.699c11.464,20.181,24.344,39.95,37.644,58.341c13.3,18.39,27.01,35.409,40.13,50.08
	c6.58,7.347,12.99,14.09,19.2,20.159c6.201,6.07,12.188,11.46,17.93,16.08c5.771,4.63,11.271,8.511,17,11.62
	c2.888,1.54,5.848,2.907,9.15,4c3.3,1.066,6.978,1.917,11.446,1.938c3.41-0.04,6.351-0.511,9.031-1.207
	c2.67-0.71,5.061-1.66,7.37-2.66c4.25-1.938,8.271-4.29,12.29-7.026c4.01-2.74,8.021-5.87,12.22-9.38
	c7.271-6.132,14.973-13.452,22.95-21.771c7.974-8.308,16.232-17.62,24.632-27.74c12.561-15.17,25.351-32.101,37.521-50
	c12.181-17.897,23.74-36.768,33.83-55.83c5.04-9.527,9.72-19.106,13.91-28.67c4.199-9.55,7.92-19.08,11.026-28.51
	c3.104-9.441,5.634-18.791,7.384-28.021c1.75-9.228,2.729-18.35,2.75-27.33c0-0.01,0-0.018,0-0.037
	C444.465,149.663,422.553,100.823,387.313,65.623z M249.549,324.728c-73.578,0-133.228-59.648-133.228-133.229
	c0-73.579,59.648-133.228,133.228-133.228c73.581,0,133.229,59.647,133.229,133.228C382.777,265.08,323.13,324.728,249.549,324.728z
	"/>
</svg>
