<?xml version="1.0" encoding="iso-8859-1"?>
<!-- Generator: Adobe Illustrator 16.0.0, SVG Export Plug-In . SVG Version: 6.00 Build 0)  -->
<!DOCTYPE svg PUBLIC "-//W3C//DTD SVG 1.1//EN" "http://www.w3.org/Graphics/SVG/1.1/DTD/svg11.dtd">
<svg version="1.1" id="Capa_1" xmlns="http://www.w3.org/2000/svg" xmlns:xlink="http://www.w3.org/1999/xlink" x="0px" y="0px"
	 width="485.213px" height="485.212px" viewBox="0 0 485.213 485.212" style="enable-background:new 0 0 485.213 485.212;"
	 xml:space="preserve">
<g>
	<path d="M470.052,136.467c-62.343,22.953-109.84,39.299-151.629,90.978c-37.229,46.05-90.98,62.011-151.628,31.657v165.457h-30.329
		V15.163C136.465,6.781,143.247,0,151.628,0c8.38,0,15.166,6.781,15.166,15.163c33.67,48.953,92.189,59.795,151.628,60.653
		C409.398,77.146,470.052,136.467,470.052,136.467z M197.116,337.612v30.854c35.775,7.318,60.653,22.841,60.653,40.936
		c0,25.113-47.534,45.49-106.141,45.49c-58.609,0-106.139-20.377-106.139-45.495c0-18.09,24.875-33.612,60.649-40.931v-30.854
		c-55.081,9.535-90.978,36.249-90.978,71.784c0,44.631,56.121,75.816,136.467,75.816c80.344,0,136.468-31.186,136.468-75.816
		C288.097,373.861,252.197,347.147,197.116,337.612z"/>
</g>
<g>
</g>
<g>
</g>
<g>
</g>
<g>
</g>
<g>
</g>
<g>
</g>
<g>
</g>
<g>
</g>
<g>
</g>
<g>
</g>
<g>
</g>
<g>
</g>
<g>
</g>
<g>
</g>
<g>
</g>
</svg>
