<?xml version="1.0" encoding="utf-8"?>
<!-- Generator: Adobe Illustrator 13.0.0, SVG Export Plug-In . SVG Version: 6.00 Build 14948)  -->
<!DOCTYPE svg PUBLIC "-//W3C//DTD SVG 1.1//EN" "http://www.w3.org/Graphics/SVG/1.1/DTD/svg11.dtd">
<svg version="1.1" id="Capa_1" xmlns="http://www.w3.org/2000/svg" xmlns:xlink="http://www.w3.org/1999/xlink" x="0px" y="0px"
	 width="47.825px" height="47.825px" viewBox="0 0 47.825 47.825" enable-background="new 0 0 47.825 47.825" xml:space="preserve">
<g>
	<g>
		<g>
			<path d="M30.995,32.87c-1.021,1.478-1.979,2.762-2.777,3.793c7.916,0.478,13.104,2.187,15.033,3.457
				c-2.26,1.49-8.979,3.586-19.336,3.586S6.837,41.609,4.576,40.12c1.93-1.271,7.114-2.979,15.022-3.455
				c-0.8-1.033-1.759-2.315-2.781-3.793C7.075,33.831,0,36.713,0,40.118c0,4.19,10.707,7.588,23.913,7.588
				c13.207,0,23.912-3.396,23.912-7.588C47.827,36.711,40.745,33.829,30.995,32.87z"/>
		</g>
	</g>
</g>
<g>
	<path d="M21.4,35.625c-0.638-0.445-1.283-1.01-1.973-1.687l0,0c-1.367-1.35-2.885-3.149-4.337-5.176l0,0
		C12.22,24.67,9.528,19.903,9.454,15.6l0,0C9.458,7.712,15.861,1.312,23.746,1.308l0,0C31.629,1.312,38.034,7.712,38.038,15.6l0,0
		c-0.056,3.781-2.152,7.867-4.569,11.608l0,0c-2.476,3.724-5.225,6.889-7.379,8.417l0,0c-0.665,0.42-1.211,0.838-2.343,0.892l0,0
		v-1.998v-1.312v0.358v0.953v2C22.613,36.462,22.068,36.046,21.4,35.625L21.4,35.625z M13.456,15.6
		c-0.033,1.711,1.034,4.601,2.657,7.378l0,0c1.604,2.794,3.703,5.558,5.449,7.418l0,0c0.868,0.947,1.726,1.671,2.183,1.987l0,0
		c0.021-0.014,0.042-0.028,0.064-0.044l0,0c0.356-0.245,0.871-0.682,1.445-1.25l0,0c1.157-1.137,2.565-2.797,3.892-4.654l0,0
		c2.69-3.673,4.966-8.364,4.892-10.835l0,0C34.026,9.93,29.414,5.319,23.746,5.309l0,0C18.077,5.319,13.466,9.93,13.456,15.6
		L13.456,15.6z M15.115,15.6c0.004-4.764,3.866-8.627,8.631-8.631l0,0v2v2c-2.547,0.006-4.625,2.084-4.629,4.632l0,0
		c0.004,2.545,2.082,4.625,4.629,4.629l0,0c2.547-0.004,4.623-2.082,4.629-4.629l0,0c-0.007-2.55-2.082-4.625-4.629-4.629l0,0V8.968
		v-2c4.763,0.004,8.625,3.865,8.628,8.631l0,0c-0.004,4.763-3.865,8.625-8.628,8.628l0,0C18.981,24.224,15.12,20.363,15.115,15.6
		L15.115,15.6z"/>
</g>
</svg>
