<?xml version="1.0" encoding="utf-8"?>
<!-- Generator: Adobe Illustrator 13.0.0, SVG Export Plug-In . SVG Version: 6.00 Build 14948)  -->
<!DOCTYPE svg PUBLIC "-//W3C//DTD SVG 1.1//EN" "http://www.w3.org/Graphics/SVG/1.1/DTD/svg11.dtd">
<svg version="1.1" id="Capa_1" xmlns="http://www.w3.org/2000/svg" xmlns:xlink="http://www.w3.org/1999/xlink" x="0px" y="0px"
	 width="1792px" height="1792px" viewBox="0 0 1792 1792" enable-background="new 0 0 1792 1792" xml:space="preserve">
<path d="M1536,1536c0,42-20.5,79.833-61.5,113.5c-41,33.666-95.666,60.666-164,81c-68.333,20.333-143.333,35.666-225,46
	c-81.666,10.333-166.166,15.5-253.5,15.5c-87.333,0-171.833-5.167-253.5-15.5c-81.666-10.334-156.666-25.667-225-46
	c-68.333-20.334-123-47.334-164-81c-41-33.667-61.5-71.5-61.5-113.5c0-32.667,11-62.167,33-88.5c22-26.334,52.334-48.5,91-66.5
	c38.667-18,78-32.834,118-44.5c40-11.667,83.667-21.5,131-29.5c17.334-3.334,33.334,0.166,48,10.5
	c14.667,10.333,23.334,24.166,26,41.5c3.334,17.333-0.166,33.333-10.5,48c-10.333,14.666-24.166,23.333-41.5,26
	c-38.666,6.666-74,14.5-106,23.5s-57.5,17.5-76.5,25.5s-35.166,15.833-48.5,23.5c-13.333,7.666-22.5,14.166-27.5,19.5
	c-5,5.333-7.833,9.333-8.5,12c2,7.333,11,16.166,27,26.5c16,10.333,40.334,21.333,73,33c32.667,11.666,70.667,22.5,114,32.5
	c43.334,10,96.834,18.333,160.5,25c63.667,6.666,130.834,10,201.5,10c70.667,0,137.834-3.334,201.5-10
	c63.667-6.667,117.167-15,160.5-25c43.334-10,81.334-21,114-33c32.667-12,57-23.167,73-33.5c16-10.334,25-19.5,27-27.5
	c-0.666-2.667-3.5-6.334-8.5-11c-5-4.667-14.166-11-27.5-19c-13.333-8-29.5-15.834-48.5-23.5c-19-7.667-44.5-16-76.5-25
	s-67.333-16.834-106-23.5c-17.333-2.667-31.166-11.334-41.5-26c-10.333-14.667-13.833-30.667-10.5-48
	c2.667-17.334,11.334-31.167,26-41.5c14.667-10.334,30.667-13.834,48-10.5c47.334,8,91,17.833,131,29.5
	c40,11.666,79.334,26.5,118,44.5c38.667,18,69,40.166,91,66.5C1525,1473.833,1536,1503.333,1536,1536z M1152,640v384
	c0,17.333-6.333,32.333-19,45c-12.666,12.666-27.666,19-45,19h-64v384c0,17.333-6.333,32.333-19,45c-12.666,12.666-27.666,19-45,19
	H704c-17.333,0-32.333-6.334-45-19c-12.666-12.667-19-27.667-19-45v-384h-64c-17.333,0-32.333-6.334-45-19
	c-12.666-12.667-19-27.667-19-45V640c0-35.334,12.5-65.5,37.5-90.5S604.667,512,640,512h384c35.334,0,65.5,12.5,90.5,37.5
	S1152,604.666,1152,640z M1056,256c0,62-21.833,114.833-65.5,158.5C946.834,458.166,894,480,832,480s-114.833-21.834-158.5-65.5
	C629.834,370.833,608,318,608,256s21.834-114.834,65.5-158.5C717.167,53.833,770,32,832,32s114.834,21.833,158.5,65.5
	C1034.167,141.166,1056,194,1056,256z"/>
<path d="M1560,871c0-26.776-9.473-49.637-28.418-68.582S1489.776,774,1463,774c-26.775,0-49.637,9.473-68.582,28.418
	S1366,844.224,1366,871c0,26.775,9.473,49.637,28.418,68.582S1436.224,968,1463,968c26.776,0,49.637-9.473,68.582-28.418
	S1560,897.776,1560,871z M1657,871c0,27.533-4.168,50.142-12.504,67.824l-137.922,293.273c-4.041,8.336-10.041,14.903-17.998,19.703
	c-7.957,4.799-16.482,7.199-25.576,7.199s-17.619-2.4-25.576-7.199c-7.957-4.8-13.83-11.367-17.619-19.703l-138.301-293.273
	C1273.168,921.142,1269,898.533,1269,871c0-53.553,18.945-99.273,56.836-137.164S1409.448,677,1463,677
	c53.553,0,99.273,18.945,137.164,56.836S1657,817.448,1657,871z"/>
<path d="M360,399c0-26.776-9.473-49.637-28.418-68.582S289.776,302,263,302c-26.775,0-49.637,9.473-68.582,28.418
	S166,372.224,166,399c0,26.775,9.473,49.637,28.418,68.582S236.224,496,263,496c26.776,0,49.637-9.473,68.582-28.418
	S360,425.776,360,399z M457,399c0,27.533-4.168,50.142-12.504,67.824L306.574,760.098c-4.041,8.336-10.041,14.903-17.998,19.703
	C280.619,784.6,272.094,787,263,787s-17.619-2.4-25.576-7.199c-7.957-4.8-13.83-11.367-17.619-19.703L81.504,466.824
	C73.168,449.142,69,426.533,69,399c0-53.553,18.945-99.273,56.836-137.164S209.448,205,263,205
	c53.553,0,99.273,18.945,137.164,56.836S457,345.448,457,399z"/>
</svg>
