<?xml version="1.0" encoding="utf-8"?>
<!-- Generator: Adobe Illustrator 13.0.0, SVG Export Plug-In . SVG Version: 6.00 Build 14948)  -->
<!DOCTYPE svg PUBLIC "-//W3C//DTD SVG 1.1//EN" "http://www.w3.org/Graphics/SVG/1.1/DTD/svg11.dtd">
<svg version="1.1" id="Capa_1" xmlns="http://www.w3.org/2000/svg" xmlns:xlink="http://www.w3.org/1999/xlink" x="0px" y="0px"
	 width="1792px" height="1792px" viewBox="0 0 1792 1792" enable-background="new 0 0 1792 1792" xml:space="preserve">
<path d="M1133.293,652.664l102.957,369.939c4.648,16.699,2.568,32.848-6.238,48.447c-8.807,15.599-21.559,25.722-38.258,30.37
	l-61.657,17.159l139.784,254.034l80.446,69.974c4.646,16.698,2.566,32.848-6.24,48.446c-8.805,15.598-21.559,25.722-38.258,30.369
	l-33.831,8.655c0,0-22.166,5.443-36.833,4.11s-34.929-11.472-34.929-11.472l-72.714-37.055L1028.5,1334.5l105.423,204.956
	c0,0,9.241,14.712,2.575,36.046c-5.333,19.334-21.333,22.667-21.333,22.667l-80.848,22.873c-16.698,4.647-32.847,2.567-48.446-6.238
	c-15.598-8.809-25.723-21.561-30.369-38.259l-195.345-355.008l-61.657,17.159c-16.698,4.647-32.847,2.567-48.446-6.238
	c-15.599-8.808-25.723-21.561-30.37-38.259l-102.957-369.94c-9.474-34.04-5.519-66.453,11.862-97.241
	c17.382-30.787,43.093-50.918,77.132-60.392l369.94-102.957c34.039-9.474,66.454-5.52,97.241,11.863
	C1103.689,592.914,1123.819,618.624,1133.293,652.664z"/>
<path d="M937.852,308.463c16.623,59.73,9.753,116.482-20.605,170.258c-30.36,53.775-75.406,88.975-135.136,105.599
	c-59.73,16.623-116.483,9.754-170.258-20.605c-53.775-30.36-88.975-75.405-105.599-135.135
	c-16.624-59.729-9.754-116.483,20.605-170.258c30.36-53.776,75.405-88.975,135.135-105.599
	c59.73-16.623,116.483-9.755,170.259,20.605C886.028,203.687,921.228,248.733,937.852,308.463z"/>
</svg>
