<?xml version="1.0" encoding="utf-8"?>
<!-- Generator: Adobe Illustrator 13.0.0, SVG Export Plug-In . SVG Version: 6.00 Build 14948)  -->
<!DOCTYPE svg PUBLIC "-//W3C//DTD SVG 1.1//EN" "http://www.w3.org/Graphics/SVG/1.1/DTD/svg11.dtd">
<svg version="1.1" id="Capa_1" xmlns="http://www.w3.org/2000/svg" xmlns:xlink="http://www.w3.org/1999/xlink" x="0px" y="0px"
	 width="500px" height="500px" viewBox="0 0 500 500" enable-background="new 0 0 500 500" xml:space="preserve">
<g>
	<path d="M217.789,142.69c30.137-11.234,45.519-44.896,34.282-75.036c-11.234-30.139-44.897-45.519-75.035-34.283
		c-30.13,11.232-45.501,44.889-34.266,75.029C154.006,138.54,187.659,153.922,217.789,142.69z"/>
	<path d="M348.032,237.964c6.547,4.3,14.844,5.232,22.192,2.493c4.941-1.842,9.088-5.152,11.992-9.572
		c3.619-5.51,4.876-12.101,3.539-18.558c-1.336-6.457-5.107-12.008-10.619-15.628l-28.315-18.598
		c-6.449-4.235-17.045-10.88-23.619-14.811l-40.604-24.279c-6.471-3.869-12.581-5.193-21.307-1.94
		c-0.218,0.082-68.695,25.608-68.695,25.608l-53.289-13.047c-6.37-1.557-14.958-4.333-18.378-5.775l-9.044-3.806
		c-5.817-2.448-12.279-2.582-18.192-0.378c-6.355,2.369-11.507,7.31-14.136,13.557c-2.557,6.078-2.594,12.787-0.105,18.893
		c2.49,6.106,7.207,10.876,13.285,13.434l9.041,3.803c6.173,2.6,17.259,6.136,25.786,8.226l70.055,17.149l36.449,76.211
		c0.051,0.206,0.081,0.412,0.139,0.616l20.66,75.249c3.027,11.033,10.854,25.147,18.614,33.56l37.068,40.205
		c7.199,7.809,18.283,10.459,28.236,6.749c3.166-1.181,6.038-2.949,8.539-5.258c5.111-4.71,8.082-11.131,8.363-18.078
		c0.283-6.945-2.157-13.587-6.87-18.696l-37.072-40.209c-2.154-2.338-5.842-8.983-6.684-12.054l-13.816-50.324l7.911-2.95
		l32.037,50.605c5.925,9.358,15.472,15.647,26.187,17.258c6.179,0.93,12.58,0.251,18.512-1.96c4.231-1.577,8.131-3.878,11.592-6.842
		l22.044-18.876c10.9-9.334,12.178-25.796,2.844-36.696c-7.075-8.264-18.675-11.266-28.864-7.467
		c-2.859,1.065-5.496,2.621-7.834,4.623l-9.402,8.052l-28.902-45.648l-22.173-46.367c1.656,1.059,3.198,2.057,4.52,2.925
		L348.032,237.964z"/>
</g>
</svg>
