<?xml version="1.0" encoding="utf-8"?>
<!-- Generator: Adobe Illustrator 13.0.0, SVG Export Plug-In . SVG Version: 6.00 Build 14948)  -->
<!DOCTYPE svg PUBLIC "-//W3C//DTD SVG 1.1//EN" "http://www.w3.org/Graphics/SVG/1.1/DTD/svg11.dtd">
<svg version="1.1" id="Capa_1" xmlns="http://www.w3.org/2000/svg" xmlns:xlink="http://www.w3.org/1999/xlink" x="0px" y="0px"
	 width="500px" height="500px" viewBox="0 0 500 500" enable-background="new 0 0 500 500" xml:space="preserve">
<g>
	<path d="M88.983,36.288h66.6c3.752,0,6.793,3.042,6.793,6.793v26.362h17.351c3.752,0,6.793,3.041,6.793,6.794v58.056h28.014
		c3.897-6.629,11.024-10.823,19.013-10.823h33.049c7.987,0,15.114,4.191,19.013,10.823h27.875V76.238
		c0-3.753,3.042-6.794,6.794-6.794h17.488V43.081c0-3.752,3.04-6.793,6.793-6.793h66.601c3.752,0,6.793,3.041,6.793,6.793v26.362
		h17.211c3.611,0,6.593,2.826,6.785,6.433l16.308,270.126h13.26c3.753,0,6.794,3.04,6.794,6.793v94.123
		c0,3.752-3.041,6.793-6.794,6.793h-170.94c-3.754,0-6.795-3.041-6.795-6.793v-94.123c0-3.753,3.041-6.793,6.795-6.793h12.908
		v-44.114h-27.875c-3.897,6.629-11.024,10.822-19.013,10.822h-33.049c-7.987,0-15.115-4.189-19.013-10.822h-28.018v44.114h12.909
		c3.752,0,6.793,3.04,6.793,6.793v94.123c0,3.752-3.041,6.793-6.793,6.793H28.486c-3.752,0-6.792-3.041-6.792-6.793v-94.123
		c0-3.753,3.041-6.793,6.792-6.793h13.26L58.052,75.876c0.193-3.606,3.172-6.434,6.785-6.434h17.35V43.081
		C82.19,39.329,85.23,36.288,88.983,36.288z M148.787,49.874H95.773v19.569h53.014V49.874L148.787,49.874z M404.365,49.874H351.35
		v19.569h53.015V49.874z M88.983,83.03h-17.7L55.354,346.005h117.579V83.03H88.983z M344.557,83.03h-17.488v262.973h117.579
		L428.719,83.028h-84.162V83.03z M273.348,140.409c-1.582-2.061-4.072-3.354-6.754-3.354h-33.049c-2.681,0-5.173,1.296-6.754,3.354
		c0.119,1.196-0.08,2.426-0.606,3.551c-0.75,1.604-1.129,3.299-1.129,5.033v138.194c0,1.732,0.379,3.425,1.132,5.031
		c0.523,1.125,0.726,2.353,0.605,3.552c1.582,2.06,4.073,3.354,6.755,3.354h33.046c2.682,0,5.173-1.296,6.754-3.354
		c-0.119-1.199,0.08-2.427,0.606-3.552c0.749-1.606,1.132-3.299,1.132-5.031V148.993c0-1.733-0.381-3.428-1.13-5.033
		C273.428,142.835,273.229,141.607,273.348,140.409z M211.469,147.879h-24.953v140.425h24.953V147.879z M313.482,147.879h-24.812
		v140.425h24.812V147.879z M48.188,359.587H35.279v80.538h157.353v-80.538H48.188z M320.276,359.587h-12.909v80.538H464.72v-80.538
		H320.276z"/>
	<path d="M300.573,460.709c-7.62-0.002-13.791-6.171-13.796-13.791l0,0v-94.123c0.005-7.622,6.178-13.791,13.796-13.793l0,0
		l5.906-0.002v-30.113h-17.216c-5.396,6.72-13.662,10.831-22.67,10.823l0,0h-33.049c-9.005,0.008-17.274-4.098-22.67-10.823l0,0
		h-17.36V339h5.909c7.62,0.004,13.789,6.173,13.793,13.795l0,0v94.123c-0.004,7.62-6.173,13.787-13.793,13.794l0,0H28.487
		c-7.622-0.007-13.789-6.176-13.793-13.794l0,0v-94.123c0.004-7.622,6.173-13.791,13.793-13.793l0,0L35.155,339L51.061,75.5
		c0.396-7.319,6.438-13.055,13.776-13.059l0,0h10.35V43.073c0.011-7.614,6.173-13.781,13.795-13.787l0,0v7.002v6.585v-6.585v-7.002
		h66.601c7.62,0.006,13.787,6.176,13.793,13.795l0,0l-0.002,19.361h10.352c7.62,0.004,13.789,6.173,13.793,13.793l0,0v51.057h17.358
		c5.394-6.721,13.659-10.831,22.667-10.824l0,0h33.049c9.006-0.009,17.272,4.1,22.669,10.824l0,0h17.219V76.236
		c0.005-7.622,6.174-13.789,13.796-13.793l0,0h10.485V43.082c0.004-7.62,6.173-13.791,13.795-13.795l0,0h66.601
		c7.62,0.006,13.787,6.173,13.791,13.795l0,0v19.361h10.213c7.334,0.004,13.378,5.733,13.771,13.011l0,0L464.842,339h6.672
		c7.618,0.004,13.791,6.173,13.794,13.795l0,0v94.123c-0.003,7.62-6.174,13.789-13.794,13.794l0,0L300.573,460.709L300.573,460.709z
		 M314.366,433.123h143.353v-66.537H320.277v-7v-6.584v6.584v7h-5.911V433.123L314.366,433.123z M42.278,433.123h143.353v-66.537
		H48.189v-7v-6.582v6.582v7h-5.911V433.123L42.278,433.123z M62.792,339.002h103.141V90.03H88.982v-7v-6.585v6.585v7H77.87
		L62.792,339.002L62.792,339.002z M334.067,339h103.144L422.13,90.027h-70.572v0.002h-17.49V339L334.067,339z M218.538,294.886
		l1.126,1.916l0.16-1.668c-0.602-1.289-1.056-2.644-1.354-4.031l0,0v3.783H218.538L218.538,294.886z M280.484,296.786l1.116-1.898
		h0.069v-3.793c-0.297,1.387-0.752,2.741-1.352,4.036l0,0L280.484,296.786L280.484,296.786z M266.594,292.122
		c0.014,0,0.027,0,0.041,0l0,0c0.216-0.979,0.54-1.942,0.976-2.863l0,0c0.335-0.73,0.472-1.373,0.475-2.071l0,0V148.993
		c-0.003-0.706-0.14-1.351-0.464-2.053l0,0c-0.438-0.934-0.767-1.901-0.983-2.885l0,0c-0.015,0-0.029,0-0.044,0l0,0h-33.049
		c-0.015,0-0.03,0-0.046,0l0,0c-0.216,0.978-0.541,1.94-0.973,2.868l0,0c-0.328,0.715-0.465,1.355-0.47,2.07l0,0v138.194
		c0.004,0.709,0.14,1.344,0.478,2.077l0,0c0.43,0.922,0.752,1.881,0.968,2.857l0,0c0.016,0,0.031,0,0.047,0l0,0H266.594
		L266.594,292.122z M295.669,281.303h10.813V154.879h-10.813V281.303L295.669,281.303z M193.515,281.303h10.955V154.878
		l-10.955-0.001V281.303L193.515,281.303z M313.481,147.879v-6.586V147.879L313.481,147.879z M211.47,147.879v-6.586V147.879
		L211.47,147.879z M218.47,145.074c0.297-1.389,0.751-2.743,1.351-4.029l0,0l-0.165-1.659l-1.121,1.907h-0.066V145.074
		L218.47,145.074z M281.67,145.073v-3.78H281.6l-1.108-1.888l-0.173,1.635C280.918,142.328,281.372,143.683,281.67,145.073
		L281.67,145.073z M273.348,140.409l5.244-4.028L273.348,140.409L273.348,140.409z M344.557,83.029v-6.585V83.029L344.557,83.029z
		 M358.348,62.443h39.015v-5.569l-39.015-0.001V62.443L358.348,62.443z M102.773,62.443h39.013v-5.57h-39.013V62.443L102.773,62.443
		z M404.365,49.875v-6.586V49.875L404.365,49.875z M148.786,49.875v-6.586V49.875L148.786,49.875z"/>
</g>
</svg>
