<?xml version="1.0" encoding="utf-8"?>
<!-- Generator: Adobe Illustrator 13.0.0, SVG Export Plug-In . SVG Version: 6.00 Build 14948)  -->
<!DOCTYPE svg PUBLIC "-//W3C//DTD SVG 1.1//EN" "http://www.w3.org/Graphics/SVG/1.1/DTD/svg11.dtd">
<svg version="1.1" id="Capa_1" xmlns="http://www.w3.org/2000/svg" xmlns:xlink="http://www.w3.org/1999/xlink" x="0px" y="0px"
	 width="340.857px" height="340.857px" viewBox="0 0 340.857 340.857" enable-background="new 0 0 340.857 340.857"
	 xml:space="preserve">
<g>
	<g>
		<path d="M247.941,6.78L12.092,242.632l88.444,88.444L336.385,95.224L247.941,6.78z M100.535,301.594l-58.962-58.962l22.11-22.111
			l29.481,29.482l14.741-14.741L78.425,205.78l14.74-14.74l14.741,14.74l14.74-14.74l-14.74-14.74l14.741-14.744l29.481,29.484
			l14.741-14.74l-29.481-29.484l14.74-14.741l14.741,14.741l14.741-14.741l-14.741-14.741l14.741-14.741l29.48,29.482l14.741-14.741
			l-29.481-29.481l14.74-14.741l14.741,14.741l14.74-14.741l-14.74-14.741l22.111-22.111l58.962,58.962L100.535,301.594z"/>
	</g>
</g>
</svg>
