<?xml version="1.0" encoding="iso-8859-1"?>
<!-- Generator: Adobe Illustrator 18.0.0, SVG Export Plug-In . SVG Version: 6.00 Build 0)  -->
<!DOCTYPE svg PUBLIC "-//W3C//DTD SVG 1.1//EN" "http://www.w3.org/Graphics/SVG/1.1/DTD/svg11.dtd">
<svg version="1.1" id="Capa_1" xmlns="http://www.w3.org/2000/svg" xmlns:xlink="http://www.w3.org/1999/xlink" x="0px" y="0px"
	 viewBox="0 0 378.82 378.82" style="enable-background:new 0 0 378.82 378.82;" xml:space="preserve">
<path d="M0,10.369v358.083h135.641v-222.41h243.18V10.369H0z M113.123,345.928H22.516v-20.546h29.91v-22.516h-29.91v-22.512h52.422
	V257.84H22.516v-22.521h29.91v-22.527h-29.91v-22.515h29.91v-22.512h-29.91v-21.723h90.607V345.928z M356.309,123.514h-20.517V93.6
	h-22.514v29.914h-22.523V71.08h-22.547v52.435h-22.512V93.6h-22.52v29.914h-22.512V93.6h-22.512v29.914h-22.512V71.08h-22.514
	v52.435h-22.516V93.6H88.096v29.914H65.553V93.6H43.027v29.914H22.516V32.897h333.793V123.514z"/>
<g>
</g>
<g>
</g>
<g>
</g>
<g>
</g>
<g>
</g>
<g>
</g>
<g>
</g>
<g>
</g>
<g>
</g>
<g>
</g>
<g>
</g>
<g>
</g>
<g>
</g>
<g>
</g>
<g>
</g>
</svg>
