<?xml version="1.0" encoding="iso-8859-1"?>
<!-- Generator: Adobe Illustrator 18.0.0, SVG Export Plug-In . SVG Version: 6.00 Build 0)  -->
<!DOCTYPE svg PUBLIC "-//W3C//DTD SVG 1.1//EN" "http://www.w3.org/Graphics/SVG/1.1/DTD/svg11.dtd">
<svg version="1.1" id="Capa_1" xmlns="http://www.w3.org/2000/svg" xmlns:xlink="http://www.w3.org/1999/xlink" x="0px" y="0px"
	 viewBox="0 0 496.84 496.84" style="enable-background:new 0 0 496.84 496.84;" xml:space="preserve">
<g>
	<path d="M398.248,196.799c0.016,0,0.029-0.01,0.045-0.01c-0.016,0-0.045,0.01-0.08,0.01H398.248z"/>
	<path d="M375.394,184.199c-4.127-6.521-8.348-13.473-12.59-20.543H65.918c-16.167,0-29.32,13.154-29.32,29.322v35.213
		c0,16.166,13.153,29.316,29.32,29.316h173.558c1.686,0,3.059,1.375,3.059,3.057v48.58c0,16.84,13.708,30.539,30.538,30.539h78.5
		c3.594,0,6.522,2.918,6.522,6.512v110.988c0,3.594-2.929,6.516-6.522,6.516H183.016c-5.549,9.49-11.197,18.805-16.651,27.43
		c-1.378,2.174-3.074,4.053-4.935,5.711h190.143c21.866,0,39.665-17.793,39.665-39.656V346.195
		c0-21.863-17.799-39.654-39.665-39.654h-75.895v-45.977c0-19.961-16.247-36.199-36.201-36.199H69.74v-27.566h328.473
		C388.877,196.773,380.35,192.055,375.394,184.199z"/>
	<path d="M143.516,306.938c-34.226,0-61.994,27.754-61.994,61.994c0,26.103,36.037,86.254,53.156,113.359
		c1.912,3.025,5.26,4.863,8.838,4.863c3.592,0,6.926-1.844,8.837-4.871c17.136-27.115,53.157-87.248,53.157-113.352
		C205.51,334.691,177.756,306.938,143.516,306.938z M143.516,399.533c-15.359,0-27.804-12.451-27.804-27.811
		c0-15.363,12.444-27.809,27.804-27.809c15.358,0,27.803,12.445,27.803,27.809C171.318,387.082,158.874,399.533,143.516,399.533z"/>
	<path d="M398.248,0c-34.23,0-61.999,27.754-61.999,61.994c0,26.106,36.022,86.238,53.162,113.354
		c1.911,3.033,5.244,4.869,8.837,4.879c3.572,0,6.926-1.846,8.832-4.873c17.125-27.104,53.162-87.254,53.162-113.359
		C460.242,27.754,432.488,0,398.248,0z M398.248,92.598c-15.359,0-27.804-12.453-27.804-27.811
		c0-15.365,12.444-27.809,27.804-27.809c15.354,0,27.799,12.443,27.799,27.809C426.047,80.145,413.602,92.598,398.248,92.598z"/>
</g>
<g>
</g>
<g>
</g>
<g>
</g>
<g>
</g>
<g>
</g>
<g>
</g>
<g>
</g>
<g>
</g>
<g>
</g>
<g>
</g>
<g>
</g>
<g>
</g>
<g>
</g>
<g>
</g>
<g>
</g>
</svg>
