<?xml version="1.0" encoding="utf-8"?>
<!-- Generator: Adobe Illustrator 13.0.0, SVG Export Plug-In . SVG Version: 6.00 Build 14948)  -->
<!DOCTYPE svg PUBLIC "-//W3C//DTD SVG 1.1//EN" "http://www.w3.org/Graphics/SVG/1.1/DTD/svg11.dtd">
<svg version="1.1" id="Capa_1" xmlns="http://www.w3.org/2000/svg" xmlns:xlink="http://www.w3.org/1999/xlink" x="0px" y="0px"
	 width="100px" height="100px" viewBox="0 0 100 100" enable-background="new 0 0 100 100" xml:space="preserve">
<path fill="#6B6B6B" d="M50,10L50,10c1.934,0,3.5,2.239,3.5,5v10c0,2.761-1.566,5-3.5,5l0,0c-1.933,0-3.5-2.239-3.5-5V15
	C46.5,12.239,48.067,10,50,10z">
</path>
<path opacity="0.1" fill="#6B6B6B" d="M90,50L90,50c0,1.934-2.238,3.5-5,3.5H75c-2.762,0-5-1.566-5-3.5l0,0c0-1.933,2.238-3.5,5-3.5
	h10C87.762,46.5,90,48.067,90,50z">
</path>
<path opacity="0.2" fill="#6B6B6B" d="M84.641,70L84.641,70c-0.967,1.674-3.688,1.912-6.08,0.531l-8.66-5
	C67.51,64.15,66.354,61.674,67.32,60l0,0c0.967-1.674,3.689-1.912,6.08-0.531l8.66,5C84.452,65.85,85.607,68.326,84.641,70z">
</path>
<path opacity="0.3" fill="#6B6B6B" d="M70,84.641L70,84.641c-1.674,0.967-4.15-0.188-5.531-2.58l-5-8.66
	c-1.381-2.391-1.143-5.113,0.531-6.08l0,0c1.674-0.967,4.15,0.189,5.531,2.58l5,8.66C71.912,80.953,71.674,83.674,70,84.641z">
</path>
<path opacity="0.4" fill="#6B6B6B" d="M50,90L50,90c-1.933,0-3.5-2.238-3.5-5V75c0-2.762,1.567-5,3.5-5l0,0c1.934,0,3.5,2.238,3.5,5
	v10C53.5,87.762,51.934,90,50,90z">
</path>
<path opacity="0.5" fill="#6B6B6B" d="M30,84.641L30,84.641c-1.674-0.967-1.912-3.688-0.531-6.08l5-8.66
	c1.381-2.391,3.857-3.547,5.531-2.58l0,0c1.674,0.967,1.912,3.689,0.531,6.08l-5,8.66C34.15,84.453,31.674,85.607,30,84.641z">
</path>
<path opacity="0.6" fill="#6B6B6B" d="M15.359,70L15.359,70c-0.966-1.674,0.189-4.15,2.58-5.531l8.66-5
	c2.392-1.381,5.114-1.143,6.081,0.531l0,0c0.966,1.674-0.189,4.15-2.581,5.531l-8.66,5C19.048,71.912,16.326,71.674,15.359,70z">
</path>
<path opacity="0.7" fill="#6B6B6B" d="M10,50L10,50c0-1.933,2.239-3.5,5-3.5h10c2.761,0,5,1.567,5,3.5l0,0c0,1.934-2.239,3.5-5,3.5
	H15C12.239,53.5,10,51.934,10,50z">
</path>
<path opacity="0.8" fill="#6B6B6B" d="M15.359,30L15.359,30c0.967-1.674,3.689-1.912,6.08-0.531l8.661,5
	c2.391,1.381,3.546,3.857,2.58,5.531l0,0c-0.967,1.674-3.689,1.912-6.08,0.531l-8.661-5C15.548,34.15,14.393,31.674,15.359,30z">
</path>
<path opacity="0.9" fill="#6B6B6B" d="M30,15.359L30,15.359c1.674-0.966,4.15,0.188,5.531,2.58l5,8.66
	c1.38,2.392,1.143,5.114-0.531,6.081l0,0c-1.674,0.966-4.15-0.189-5.531-2.581l-5-8.66C28.088,19.047,28.326,16.326,30,15.359z">
</path>
</svg>
