<?xml version="1.0" encoding="utf-8"?>
<!-- Generator: Adobe Illustrator 13.0.0, SVG Export Plug-In . SVG Version: 6.00 Build 14948)  -->
<!DOCTYPE svg PUBLIC "-//W3C//DTD SVG 1.1//EN" "http://www.w3.org/Graphics/SVG/1.1/DTD/svg11.dtd">
<svg version="1.1" id="Capa_1" xmlns="http://www.w3.org/2000/svg" xmlns:xlink="http://www.w3.org/1999/xlink" x="0px" y="0px"
	 width="500px" height="500px" viewBox="0 0 500 500" enable-background="new 0 0 500 500" xml:space="preserve">
<g>
	<g id="Layer_1_94_">
		<g>
			<path fill="#030104" d="M263.371,328.64V179.664c0-7.354-6.018-13.371-13.371-13.371c-7.354,0-13.371,6.017-13.371,13.371V328.64
				c-22.998,5.99-40.112,26.741-40.112,51.585c0,29.495,23.961,53.482,53.483,53.482c29.523,0,53.482-23.987,53.482-53.482
				C303.482,355.381,286.368,334.63,263.371,328.64z"/>
			<path fill="#030104" d="M337.5,286.475V87.5C337.5,39.25,298.25,0,250,0s-87.5,39.25-87.5,87.5v198.975
				C139.45,309.025,125,340.25,125,375c0,68.925,56.075,125,125,125c68.926,0,125-56.075,125-125
				C375,340.25,360.551,309.025,337.5,286.475z M250,458.932c-43.196,0-78.349-35.153-78.349-78.35
				c0-28.858,15.852-53.852,39.174-67.459V80.243c0-21.598,17.577-39.175,39.175-39.175c21.598,0,39.175,17.577,39.175,39.175
				v232.88c23.322,13.607,39.175,38.601,39.175,67.459C328.349,423.779,293.197,458.932,250,458.932z"/>
		</g>
	</g>
</g>
</svg>
