<?xml version="1.0" encoding="utf-8"?>
<!-- Generator: Adobe Illustrator 13.0.0, SVG Export Plug-In . SVG Version: 6.00 Build 14948)  -->
<!DOCTYPE svg PUBLIC "-//W3C//DTD SVG 1.1//EN" "http://www.w3.org/Graphics/SVG/1.1/DTD/svg11.dtd">
<svg version="1.1" id="Artwork" xmlns="http://www.w3.org/2000/svg" xmlns:xlink="http://www.w3.org/1999/xlink" x="0px" y="0px"
	 width="512px" height="512px" viewBox="0 0 512 512" enable-background="new 0 0 512 512" xml:space="preserve">
<g>
	<path d="M434.631,346.17c74.105-74.108,74.105-194.692,0-268.799c-74.107-74.108-194.69-74.108-268.799,0
		c-62.869,62.871-72.391,156.375-28.59,229.39c0,0,3.147,5.277-1.103,9.527c-24.242,24.241-96.972,96.972-96.972,96.972
		c-19.301,19.3-23.897,46.288-6.78,63.405l2.947,2.945c17.116,17.118,44.106,12.524,63.406-6.776c0,0,72.576-72.576,96.769-96.769
		c4.453-4.452,9.73-1.306,9.73-1.306C278.253,418.561,371.76,409.04,434.631,346.17z M200.923,311.078
		c-54.758-54.758-54.757-143.854,0-198.613c54.758-54.757,143.858-54.758,198.612,0c54.758,54.757,54.758,143.855,0,198.613
		C344.779,365.835,255.681,365.835,200.923,311.078z"/>
	<path d="M390.534,224.502c0,8.299-6.79,15.09-15.09,15.09H227.06c-8.299,0-15.09-6.791-15.09-15.09V199.49
		c0-8.299,6.791-15.09,15.09-15.09h148.384c8.3,0,15.09,6.791,15.09,15.09V224.502z"/>
</g>
</svg>
