<?xml version="1.0" encoding="utf-8"?>
<!-- Generator: Adobe Illustrator 13.0.0, SVG Export Plug-In . SVG Version: 6.00 Build 14948)  -->
<!DOCTYPE svg PUBLIC "-//W3C//DTD SVG 1.1//EN" "http://www.w3.org/Graphics/SVG/1.1/DTD/svg11.dtd">
<svg version="1.1" id="Artwork" xmlns="http://www.w3.org/2000/svg" xmlns:xlink="http://www.w3.org/1999/xlink" x="0px" y="0px"
	 width="512px" height="512px" viewBox="0 0 512 512" enable-background="new 0 0 512 512" xml:space="preserve">
<g>
	<path d="M434.631,346.17c74.105-74.108,74.104-194.692,0-268.799c-74.108-74.108-194.69-74.108-268.799,0
		c-62.869,62.871-72.39,156.375-28.589,229.39c0,0,3.147,5.278-1.103,9.527c-24.243,24.241-96.972,96.972-96.972,96.972
		c-19.301,19.3-23.896,46.288-6.78,63.405l2.947,2.945c17.116,17.118,44.105,12.524,63.406-6.776c0,0,72.576-72.576,96.769-96.769
		c4.453-4.452,9.73-1.306,9.73-1.306C278.254,418.561,371.76,409.04,434.631,346.17z M200.923,311.078
		c-54.758-54.758-54.757-143.854,0.001-198.613c54.758-54.757,143.856-54.758,198.611,0c54.759,54.757,54.759,143.855,0,198.613
		C344.779,365.834,255.681,365.834,200.923,311.078z"/>
	<g>
		<path d="M213.052,200.491c-2.548,0-5.14-0.501-7.637-1.556c-9.976-4.222-14.643-15.732-10.421-25.71
			c26.537-62.711,99.145-92.141,161.857-65.604c9.975,4.222,14.642,15.732,10.42,25.71c-4.224,9.977-15.73,14.642-25.712,10.42
			c-42.786-18.104-92.328,1.977-110.432,44.762C227.961,195.995,220.698,200.491,213.052,200.491z"/>
	</g>
</g>
</svg>
