<?xml version="1.0" encoding="utf-8"?>
<!-- Generator: Adobe Illustrator 13.0.0, SVG Export Plug-In . SVG Version: 6.00 Build 14948)  -->
<!DOCTYPE svg PUBLIC "-//W3C//DTD SVG 1.1//EN" "http://www.w3.org/Graphics/SVG/1.1/DTD/svg11.dtd">
<svg version="1.1" id="Artwork" xmlns="http://www.w3.org/2000/svg" xmlns:xlink="http://www.w3.org/1999/xlink" x="0px" y="0px"
	 width="512px" height="512px" viewBox="0 0 512 512" enable-background="new 0 0 512 512" xml:space="preserve">
<g>
	<path d="M434.631,346.17c74.105-74.108,74.105-194.692,0-268.799c-74.107-74.108-194.691-74.108-268.799,0
		c-62.869,62.871-72.39,156.375-28.589,229.39c0,0,3.147,5.277-1.103,9.527c-24.243,24.241-96.972,96.972-96.972,96.972
		c-19.301,19.3-23.896,46.288-6.78,63.405l2.947,2.945c17.116,17.118,44.105,12.524,63.406-6.776c0,0,72.576-72.576,96.768-96.769
		c4.454-4.452,9.73-1.306,9.73-1.306C278.253,418.561,371.76,409.04,434.631,346.17z M200.923,311.078
		c-54.758-54.758-54.757-143.854,0.001-198.613c54.758-54.757,143.858-54.758,198.612,0c54.759,54.757,54.759,143.855,0,198.613
		C344.779,365.835,255.681,365.835,200.923,311.078z"/>
	<path d="M375.444,184.4h-42.527c0,0-4.068-0.32-4.068-4.471c0-10.532,0-42.125,0-42.125c0-8.299-6.791-15.09-15.091-15.09h-25.012
		c-8.299,0-15.09,6.791-15.09,15.09c0,0,0,31.382,0,41.842c0,4.433-4.304,4.752-4.304,4.752h-42.291
		c-8.299,0-15.09,6.791-15.09,15.09v25.012c0,8.299,6.791,15.09,15.09,15.09h41.976c0,0,4.618,0.131,4.618,4.533
		c0,10.516,0,42.063,0,42.063c0,8.299,6.791,15.09,15.09,15.09h25.012c8.3,0,15.091-6.791,15.091-15.09c0,0,0-31.736,0-42.315
		c0-4.057,4.636-4.281,4.636-4.281h41.961c8.3,0,15.09-6.791,15.09-15.09v-25.012C390.534,191.191,383.743,184.4,375.444,184.4z"/>
</g>
</svg>
