<?xml version="1.0" encoding="utf-8"?>
<!-- Generator: Adobe Illustrator 13.0.0, SVG Export Plug-In . SVG Version: 6.00 Build 14948)  -->
<!DOCTYPE svg PUBLIC "-//W3C//DTD SVG 1.1//EN" "http://www.w3.org/Graphics/SVG/1.1/DTD/svg11.dtd">
<svg version="1.1" id="Capa_1" xmlns="http://www.w3.org/2000/svg" xmlns:xlink="http://www.w3.org/1999/xlink" x="0px" y="0px"
	 width="1792px" height="1792px" viewBox="0 0 1792 1792" enable-background="new 0 0 1792 1792" xml:space="preserve">
<path d="M1754.26,358.157v1083.025c0,39.188-13.952,72.735-41.86,100.644c-27.905,27.906-61.453,41.859-100.643,41.859H186.721
	c-39.188,0-72.735-13.953-100.645-41.859c-27.906-27.905-41.859-61.455-41.859-100.644V358.157
	c0-39.188,13.953-72.735,41.859-100.644c27.908-27.907,61.455-41.86,100.645-41.86h1425.036c39.188,0,72.735,13.953,100.643,41.86
	C1740.306,285.422,1754.26,318.97,1754.26,358.157z M1594.177,357.021H204.299c-7.528,0-14.043,2.685-19.546,8.056
	c-5.501,5.37-8.253,11.728-8.253,19.077V1415.19c0,7.347,2.751,13.706,8.253,19.077c5.502,5.37,12.016,8.055,19.546,8.055h1389.879
	c7.528,0,14.042-2.685,19.545-8.055c5.502-5.37,8.254-11.729,8.254-19.077V384.151c0-7.347-2.752-13.708-8.254-19.078
	C1608.22,359.705,1601.705,357.021,1594.177,357.021z M1147.846,1012.331c25.089-25.092,43.911-53.427,56.456-84.992
	c12.539-31.563,18.811-63.738,18.811-96.518c0-32.782-6.268-65.159-18.811-97.129c-12.545-31.968-31.37-60.5-56.456-85.594
	c-25.09-25.09-53.425-43.709-84.987-55.848c-31.566-12.142-63.942-18.214-97.129-18.214c-33.188,0-65.573,6.073-97.131,18.214
	c-31.566,12.139-59.892,30.761-84.985,55.848c-25.095,25.093-43.911,53.623-56.455,85.594
	c-12.545,31.97-18.821,64.352-18.821,97.129c0,32.779,6.276,64.955,18.821,96.518c12.544,31.566,31.36,59.896,56.455,84.992
	c25.095,25.093,53.419,43.913,84.985,56.458c31.568,12.538,63.947,18.81,97.131,18.81c33.187,0,65.563-6.271,97.129-18.81
	C1094.427,1056.239,1122.757,1037.423,1147.846,1012.331z M1229.739,566.323c36.512,36.504,63.885,77.738,82.14,123.694
	c18.254,45.958,27.38,92.729,27.38,140.317c0,47.587-9.126,94.356-27.38,140.314c-18.255,45.958-45.631,87.188-82.14,123.694
	c-29.328,29.335-61.928,52.802-97.781,70.404c-35.85,17.598-73.005,29.327-111.474,35.195c-38.457,5.872-77.084,5.547-115.867-0.972
	c-38.787-6.519-75.789-18.905-110.984-37.158l-168.186,168.186c-9.78,9.775-20.533,16.942-32.271,21.511
	c-11.731,4.561-23.955,6.844-36.665,6.844c-12.711,0-24.935-2.283-36.666-6.844c-11.737-4.564-22.493-11.734-32.27-21.511
	c-9.776-9.78-16.951-20.537-21.514-32.269c-4.561-11.735-6.845-23.958-6.845-36.668c0-12.711,2.284-24.93,6.845-36.661
	c4.563-11.738,11.734-22.49,21.514-32.268l162.316-162.32c-22.816-35.853-38.787-74.316-47.912-115.386
	c-9.127-41.065-11.574-82.135-7.336-123.199c4.239-41.067,15.319-80.999,33.247-119.783c17.927-38.787,42.534-73.826,73.825-105.115
	c36.506-35.856,77.735-62.907,123.696-81.161c45.957-18.256,92.73-27.38,140.319-27.38c47.583,0,94.36,9.125,140.313,27.377
	C1152.007,503.416,1193.235,530.469,1229.739,566.323z"/>
</svg>
